<?xml version="1.0" encoding="UTF-8" standalone="no"?>
<!-- Created with Inkscape (http://www.inkscape.org/) -->

<svg
   version="1.1"
   id="svg1"
   width="1874.8011"
   height="1633.2745"
   viewBox="0 0 1874.8012 1633.2745"
   sodipodi:docname="confusius-logo.svg"
   inkscape:version="1.4.3 (0d15f75042, 2025-12-25)"
   inkscape:export-filename="../../confusius-logo.png"
   inkscape:export-xdpi="96"
   inkscape:export-ydpi="96"
   xmlns:inkscape="http://www.inkscape.org/namespaces/inkscape"
   xmlns:sodipodi="http://sodipodi.sourceforge.net/DTD/sodipodi-0.dtd"
   xmlns="http://www.w3.org/2000/svg"
   xmlns:svg="http://www.w3.org/2000/svg">
  <defs
     id="defs1">
    <inkscape:path-effect
       effect="pts2ellipse"
       id="path-effect59"
       is_visible="true"
       lpeversion="1"
       method="auto"
       gen_arc="false"
       arc_other="false"
       slice_arc="false"
       gen_isometric_frame="false"
       draw_axes="false"
       gen_perspective_frame="false"
       draw_perspective_axes="false"
       rot_axes="0"
       draw_ori_path="false" />
    <inkscape:path-effect
       effect="pts2ellipse"
       id="path-effect58"
       is_visible="true"
       lpeversion="1"
       method="auto"
       gen_arc="false"
       arc_other="false"
       slice_arc="false"
       gen_isometric_frame="false"
       draw_axes="false"
       gen_perspective_frame="false"
       draw_perspective_axes="false"
       rot_axes="0"
       draw_ori_path="false" />
    <inkscape:path-effect
       effect="pts2ellipse"
       id="path-effect57"
       is_visible="true"
       lpeversion="1"
       method="auto"
       gen_arc="false"
       arc_other="false"
       slice_arc="false"
       gen_isometric_frame="false"
       draw_axes="false"
       gen_perspective_frame="false"
       draw_perspective_axes="false"
       rot_axes="0"
       draw_ori_path="false" />
    <inkscape:path-effect
       effect="pts2ellipse"
       id="path-effect56"
       is_visible="true"
       lpeversion="1"
       method="auto"
       gen_arc="false"
       arc_other="false"
       slice_arc="false"
       gen_isometric_frame="false"
       draw_axes="false"
       gen_perspective_frame="false"
       draw_perspective_axes="false"
       rot_axes="0"
       draw_ori_path="false" />
    <inkscape:path-effect
       effect="fillet_chamfer"
       id="path-effect53"
       is_visible="true"
       lpeversion="1"
       nodesatellites_param="IF,0,0,1,0,10,0,17 @ IF,0,0,1,0,10,0,17 @ IF,0,0,1,0,10,0,17 @ IF,0,0,1,0,3.4383624,0,17 @ IF,0,0,1,0,10,0,17 @ IF,0,0,1,0,10,0,17 @ IF,0,0,1,0,10,0,17 @ IF,0,0,1,0,10,0,17"
       radius="10"
       unit="px"
       method="auto"
       mode="IF"
       chamfer_steps="17"
       flexible="false"
       use_knot_distance="true"
       apply_no_radius="true"
       apply_with_radius="true"
       only_selected="false"
       hide_knots="false" />
    <inkscape:path-effect
       effect="fillet_chamfer"
       id="path-effect11"
       is_visible="true"
       lpeversion="1"
       nodesatellites_param="F,0,0,1,0,30,0,1 @ F,0,0,1,0,30,0,1 @ F,0,0,1,0,30,0,1 @ F,0,0,1,0,30,0,1 @ F,0,0,1,0,30,0,1 @ F,0,0,1,0,30,0,1 @ F,0,0,1,0,30,0,1 @ F,0,0,1,0,30,0,1 @ F,0,0,1,0,30,0,1 @ F,0,0,1,0,30,0,1 @ F,0,0,1,0,30,0,1 @ F,0,0,1,0,30,0,1 @ F,0,0,1,0,30,0,1 @ F,0,0,1,0,30,0,1 @ F,0,0,1,0,30,0,1 @ F,0,0,1,0,30,0,1 @ F,0,0,1,0,30,0,1 @ F,0,0,1,0,30,0,1 @ F,0,0,1,0,11.055871,0,1"
       radius="30"
       unit="px"
       method="auto"
       mode="F"
       chamfer_steps="1"
       flexible="false"
       use_knot_distance="true"
       apply_no_radius="true"
       apply_with_radius="true"
       only_selected="false"
       hide_knots="false" />
    <inkscape:path-effect
       effect="fillet_chamfer"
       id="path-effect10"
       is_visible="true"
       lpeversion="1"
       nodesatellites_param="F,0,0,1,0,0,0,1 @ F,0,0,1,0,44,0,1 @ F,0,0,1,0,44,0,1 @ F,0,0,1,0,44.000001,0,1"
       radius="44"
       unit="px"
       method="auto"
       mode="F"
       chamfer_steps="1"
       flexible="false"
       use_knot_distance="true"
       apply_no_radius="true"
       apply_with_radius="true"
       only_selected="false"
       hide_knots="false" />
    <inkscape:path-effect
       effect="fillet_chamfer"
       id="path-effect8"
       is_visible="true"
       lpeversion="1"
       nodesatellites_param="F,0,0,1,0,27.367774,0,1 @ F,0,0,1,0,30,0,1 @ F,0,0,1,0,30,0,1 @ F,0,0,1,0,30,0,1 @ F,0,0,1,0,30,0,1 @ F,0,0,1,0,30,0,1 @ F,0,0,1,0,30,0,1 @ F,0,0,1,0,30,0,1 @ F,0,0,1,0,30,0,1 @ F,0,0,1,0,30,0,1 @ F,0,0,1,0,30,0,1 @ F,0,0,1,0,30,0,1 @ F,0,0,1,0,28.207979,0,1 @ F,0,0,1,0,28.207979,0,1 @ F,0,0,1,0,34.313273,0,1 @ F,0,0,1,0,30,0,1 @ F,0,0,1,0,30,0,1 @ F,0,0,1,0,30,0,1 @ F,0,0,1,0,30,0,1 @ F,0,0,1,0,30,0,1 @ F,0,0,1,0,30,0,1 @ F,0,0,1,0,30,0,1 @ F,0,0,1,0,30,0,1 @ F,0,0,1,0,30,0,1 @ F,0,0,1,0,30,0,1 @ F,0,0,1,0,30,0,1 @ F,0,0,1,0,30,0,1 @ F,0,1,1,0,17.862434,0,1"
       radius="30"
       unit="px"
       method="auto"
       mode="IC"
       chamfer_steps="1"
       flexible="false"
       use_knot_distance="true"
       apply_no_radius="true"
       apply_with_radius="true"
       only_selected="false"
       hide_knots="false" />
  </defs>
  <sodipodi:namedview
     id="namedview1"
     pagecolor="#ffffff"
     bordercolor="#000000"
     borderopacity="0.25"
     inkscape:showpageshadow="2"
     inkscape:pageopacity="0.0"
     inkscape:pagecheckerboard="0"
     inkscape:deskcolor="#d1d1d1"
     inkscape:zoom="0.56774903"
     inkscape:cx="727.43409"
     inkscape:cy="376.04644"
     inkscape:window-width="2008"
     inkscape:window-height="1112"
     inkscape:window-x="0"
     inkscape:window-y="0"
     inkscape:window-maximized="1"
     inkscape:current-layer="g1" />
  <g
     inkscape:groupmode="layer"
     inkscape:label="Image"
     id="g1"
     transform="translate(-254.19891,-185.61454)">
    <g
       id="g16"
       inkscape:label="confusius"
       style="display:inline">
      <g
         id="g3"
         inkscape:label="snake belly"
         style="display:inline;fill:#ffd43b;fill-opacity:1">
        <path
           style="opacity:1;fill:#ffd43b;fill-opacity:1"
           d="m 1864.1309,459.04777 c -57.2945,-10.75794 -115.0349,-10.88956 -172.8613,-15.06551 -60.495,-6.75115 -116.4551,-34.21346 -172.655,-55.55854 -80.066,-13.99359 -148.8299,48.30318 -192.641,108.41483 -31.4676,52.68494 -51.8947,112.62744 -45.5799,174.76731 6.008,69.83908 47.2698,128.86724 87.7974,183.46265 57.193,54.07901 108.332,111.2459 173.553,155.63779 92.1745,74.5008 194.9821,157.3343 223.9296,277.0184 13.5278,65.1751 23.5487,133.4289 0.2954,197.8342 -13.4914,57.4999 -53.2625,104.0368 -92.0476,146.3073 -42.9413,40.7324 -91.8605,76.2494 -150.6923,89.0689 -67.9318,19.8118 -142.4788,23.0128 -211.4448,7.2604 -66.2156,-15.4067 -119.7814,-57.628 -173.5242,-98.1119 -40.1856,-44.4198 -92.5879,-77.8377 -118.4308,-133.1818 -26.54611,-57.6249 -33.64678,-40.2911 -32.89353,0.1414 3.75169,24.257 9.89183,50.4157 28.72643,68.027 26.9887,33.8795 50.1187,71.6716 79.4721,103.1534 47.7275,31.6915 89.6042,73.6779 144.762,92.295 33.7608,14.2108 66.3548,33.0415 104.1728,31.1877 42.1667,1.9352 84.6943,11.1434 126.6334,8.4922 45.0519,-9.4192 91.982,-12.7829 132.7897,-35.8857 31.7847,-15.9221 67.801,-25.8804 96.9759,-45.4804 39.45,-44.1569 85.0659,-83.5335 113.2014,-136.4623 15.5516,-23.6133 32.9238,-46.4812 34.4897,-75.8206 10.1586,-43.3164 19.473,-86.7298 16.9649,-131.5008 -0.1048,-35.3164 6.6599,-71.7419 -10.8587,-104.2472 -16.4378,-49.7016 -37.9945,-97.9473 -60.7286,-144.7996 -39.7599,-44.848 -77.3516,-91.9129 -125.8783,-127.79621 -66.9766,-58.11146 -143.9436,-103.18738 -214.8231,-156.29023 -36.7067,-21.36313 -52.8336,-63.31719 -79.1702,-95.05602 -9.6359,-43.49229 -20.3916,-86.86845 -16.4284,-131.77112 -3.5905,-37.54778 21.1604,-69.67774 31.5931,-104.54481 31.224,-31.43101 65.2798,-59.19727 103.9797,-80.95348 15.7126,-10.05573 41.5039,-8.39669 57.0399,0.89966 23.0227,17.08187 44.9855,36.47989 74.9398,38.41579 45.9586,11.76537 94.1658,12.96505 141.3303,14.42168 35.5544,-1.9029 71.1117,-3.73277 106.7156,-4.37669 -2.9015,-6.63423 -5.8029,-13.26847 -8.7044,-19.9027 z"
           id="path2"
           inkscape:label="belly1"
           sodipodi:nodetypes="cccccccccccccccccccccccccccccccccccccc" />
        <path
           style="opacity:1;fill:#ffd43b;fill-opacity:1"
           d="m 846.87416,1184.4167 c -39.99907,-40.682 -96.30683,-59.7461 -150.72348,-71.9552 -39.16921,-2.6344 -78.83105,-6.2846 -117.47603,2.9076 -43.42905,4.1044 -79.88996,29.9517 -115.57694,52.7073 -28.06963,23.5768 -53.07931,51.4869 -73.94097,81.6037 -19.08364,36.3644 -40.4677,73.4459 -41.76048,115.6617 -4.48197,37.606 -7.83844,76.6135 6.11782,112.8041 8.44633,32.232 20.24784,63.561 39.88391,90.7538 32.41089,57.4132 92.23854,91.519 151.79564,114.8292 63.06277,18.7652 120.83802,15.034 194.00452,-9.4279 36.74,-17.3707 51.35927,-24.2175 72.54245,-45.4007 23.96592,-23.9659 40.6322,-55.3732 15.494,-47.9404 -32.68908,23.5747 -65.37817,47.1495 -98.06726,70.7242 l -144.06426,12.6372 c -44.6515,-23.1682 -89.30299,-46.3365 -133.95449,-69.5047 -20.45774,-41.0291 -42.61416,-81.5967 -62.0162,-122.9127 -2.49616,-42.4347 -4.99232,-84.8695 -7.48848,-127.3042 20.34488,-30.4785 39.1339,-62.2535 60.45618,-91.9176 22.17339,-20.3068 43.40754,-42.1701 66.16438,-61.51 32.07111,-10.5564 63.91524,-22.6937 96.1273,-32.2684 l 112.13835,4.9839 c 27.97691,18.9772 57.23058,36.3184 84.40384,56.3254 20.30805,18.7153 40.61609,37.4305 60.92414,56.1458 6.40545,-5.7464 23.80552,-6.2597 21.70692,-16.0538 -6.39316,-28.7693 -12.78632,-57.5385 -19.17948,-86.3077 -5.83713,3.4731 -11.67425,6.9463 -17.51138,10.4194 z"
           id="path3"
           inkscape:label="belly2"
           sodipodi:nodetypes="cccccccccccccccccccccccccc" />
      </g>
      <g
         inkscape:groupmode="layer"
         id="layer4"
         inkscape:label="stripes"
         style="display:inline;fill:#a57e08;fill-opacity:1;stroke:none">
        <path
           style="opacity:1;fill:#a57e08;fill-opacity:1;stroke:none;stroke-width:30;stroke-dasharray:none;stroke-opacity:1"
           d="m 1419.2961,466.8454 c 0,0 -24.1489,-35.63478 -18.4523,-56.89486 l 10.7638,-7.68849 c 0,0 27.371,40.90279 19.6825,56.27978 -7.6884,15.37699 -11.994,8.30357 -11.994,8.30357 z"
           id="path17"
           sodipodi:nodetypes="cccsc" />
        <path
           style="opacity:1;fill:#a57e08;fill-opacity:1;stroke:none;stroke-width:30;stroke-dasharray:none;stroke-opacity:1"
           d="m 1375.0104,520.66487 c 0,0 -44.9008,-28.29366 -51.9742,-27.67858 -7.0734,0.61508 6.1508,-28.29366 6.1508,-28.29366 0,0 35.0595,39.05755 51.0516,40.90279 15.9921,1.84524 -5.2282,15.06945 -5.2282,15.06945 z"
           id="path18" />
        <path
           style="opacity:1;fill:#a57e08;fill-opacity:1;stroke:none;stroke-width:30;stroke-dasharray:none;stroke-opacity:1"
           d="m 1350.7148,582.78791 c 0,0 -60.5854,-7.38096 -67.9663,-8.91866 -7.381,-1.5377 -4.6131,18.45239 -4.6131,18.45239 0,0 66.4286,6.76588 69.1964,17.22223 2.7679,10.45636 3.383,-26.75596 3.383,-26.75596 z"
           id="path19"
           sodipodi:nodetypes="cscsc" />
        <path
           style="opacity:1;fill:#a57e08;fill-opacity:1;stroke:none;stroke-width:30;stroke-dasharray:none;stroke-opacity:1"
           d="m 1346.1017,688.27405 c 0,0 -53.512,7.99604 -63.9683,18.14485 -10.4564,10.14882 -2.7679,11.68651 -2.7679,11.68651 0,0 69.8116,0.92262 73.502,-11.07143 3.6905,-11.99405 -6.7658,-18.75993 -6.7658,-18.75993 z"
           id="path20"
           sodipodi:nodetypes="cscsc" />
        <path
           style="opacity:1;fill:#a57e08;fill-opacity:1;stroke:none;stroke-width:30;stroke-dasharray:none;stroke-opacity:1"
           d="m 1391.3101,788.83956 c 0,0 -59.9703,40.9028 -47.9762,55.66471 11.994,14.76191 3.3828,-3.38294 3.3828,-3.38294 0,0 66.4286,-25.5258 65.8136,-31.98414 -0.6151,-6.45833 -21.2202,-20.29763 -21.2202,-20.29763 z"
           id="path21"
           sodipodi:nodetypes="cscsc" />
        <path
           style="opacity:1;fill:#a57e08;fill-opacity:1;stroke:none;stroke-width:30;stroke-dasharray:none;stroke-opacity:1"
           d="m 1491.568,883.25428 c 0,0 -28.9088,31.06152 -55.3572,41.82541 -26.4484,10.7639 13.8393,12.60914 13.8393,12.60914 0,0 70.7341,-32.90677 67.3512,-43.05558 -3.3829,-10.14881 -25.8333,-11.37897 -25.8333,-11.37897 z"
           id="path22"
           sodipodi:nodetypes="cscsc" />
        <path
           style="opacity:1;fill:#a57e08;fill-opacity:1;stroke:none;stroke-width:30;stroke-dasharray:none;stroke-opacity:1"
           d="m 1604.4351,958.29399 c 0,0 -66.7362,48.28371 -61.2004,60.89281 5.5357,12.6092 8.9186,1.8453 8.9186,1.8453 0,0 67.3512,-50.43651 72.2719,-47.05358 4.9206,3.38294 -19.9901,-15.68453 -19.9901,-15.68453 z"
           id="path23"
           sodipodi:nodetypes="cscsc" />
        <path
           style="opacity:1;fill:#a57e08;fill-opacity:1;stroke:none;stroke-width:30;stroke-dasharray:none;stroke-opacity:1"
           d="m 1702.8478,1039.177 c 0,0 -34.4444,25.5258 -37.2123,30.7539 -2.7678,5.2282 -20.2976,22.1429 -31.9841,20.6052 -11.6865,-1.5377 10.1488,13.8393 10.1488,13.8393 0,0 81.1905,-43.6707 76.885,-55.3572 -4.3056,-11.6865 -17.8374,-9.8412 -17.8374,-9.8412 z"
           id="path24"
           sodipodi:nodetypes="csscsc" />
        <path
           style="opacity:1;fill:#a57e08;fill-opacity:1;stroke:none;stroke-width:30;stroke-dasharray:none;stroke-opacity:1"
           d="m 1787.1138,1139.7425 c 0,0 -68.5814,37.8274 -77.1926,45.5159 -8.6111,7.6885 1.8453,12.3015 1.8453,12.3015 0,0 100.258,-32.9067 92.877,-47.9762 -6.911,-14.11 -17.5297,-9.8412 -17.5297,-9.8412 z"
           id="path25"
           sodipodi:nodetypes="cscsc" />
        <path
           style="opacity:1;fill:#a57e08;fill-opacity:1;stroke:none;stroke-width:30;stroke-dasharray:none;stroke-opacity:1"
           d="m 1843.7011,1265.8338 c 0,0 -41.8255,12.9167 -47.6687,14.1468 -5.8433,1.2302 -31.3691,15.6845 -38.1349,13.2242 -6.7659,-2.4603 4.9206,11.9941 4.9206,11.9941 0,0 89.4941,-7.381 85.4961,-26.4484 -3.9981,-19.0675 -4.6131,-12.9167 -4.6131,-12.9167 z"
           id="path26" />
        <path
           style="opacity:1;fill:#a57e08;fill-opacity:1;stroke:none;stroke-width:30;stroke-dasharray:none;stroke-opacity:1"
           d="m 1861.5384,1402.9965 c 0,0 -97.4902,2.7679 -99.6429,-5.2281 -2.1528,-7.9961 5.5357,13.2242 5.5357,13.2242 0,0 47.3611,27.0635 96.875,14.1468 49.5139,-12.9167 -2.7678,-22.1429 -2.7678,-22.1429 z"
           id="path27" />
        <path
           style="opacity:1;fill:#a57e08;fill-opacity:1;stroke:none;stroke-width:30;stroke-dasharray:none;stroke-opacity:1"
           d="m 1828.0165,1538.314 c 0,0 -71.9643,-17.5297 -85.1885,-23.6805 -13.2242,-6.1508 -6.1508,5.2282 -6.1508,5.2282 0,0 78.7302,42.748 76.8849,51.0516 -1.8452,8.3036 14.4544,-32.5993 14.4544,-32.5993 z"
           id="path28"
           sodipodi:nodetypes="cscsc" />
        <path
           style="opacity:1;fill:#a57e08;fill-opacity:1;stroke:none;stroke-width:30;stroke-dasharray:none;stroke-opacity:1"
           d="m 1753.8994,1654.2565 c 0,0 -73.1944,-53.8194 -71.3492,-61.5079 1.8452,-7.6885 -13.5317,15.0694 -13.5317,15.0694 0,0 18.7599,11.6866 24.2956,19.9901 5.5357,8.3036 36.9048,47.6687 34.4445,55.0496 -2.4604,7.381 26.1408,-28.6012 26.1408,-28.6012 z"
           id="path29"
           sodipodi:nodetypes="cscssc" />
        <path
           style="opacity:1;fill:#a57e08;fill-opacity:1;stroke:none;stroke-width:30;stroke-dasharray:none;stroke-opacity:1"
           d="m 1628.7307,1746.2109 c 0,0 -5.5357,-33.5218 -11.0714,-39.9801 -5.5357,-6.4584 -12.9167,-12.9167 -13.5317,-18.4524 -0.6151,-5.5358 -7.0735,-13.5318 -7.0735,-13.5318 l -10.4563,9.5338 6.7659,7.3809 c 0,0 0.9226,17.2222 2.1527,22.758 1.2302,5.5357 10.7639,37.5198 10.7639,37.5198 z"
           id="path30"
           sodipodi:nodetypes="csscccscc" />
        <path
           style="opacity:1;fill:#a57e08;fill-opacity:1;stroke:none;stroke-width:30;stroke-dasharray:none;stroke-opacity:1"
           d="m 1499.8716,1784.6534 c 0,0 -15.9921,-50.4365 -16.2996,-58.7401 -0.3076,-8.3036 -26.1409,-7.0734 -26.1409,-7.0734 0,0 19.375,48.5913 12.9167,71.0417 -6.4584,22.4504 29.5238,-5.2282 29.5238,-5.2282 z"
           id="path31"
           sodipodi:nodetypes="cscsc" />
        <path
           style="opacity:1;fill:#a57e08;fill-opacity:1;stroke:none;stroke-width:30;stroke-dasharray:none;stroke-opacity:1"
           d="m 1351.9449,1790.8042 c 0,0 16.9147,-40.9028 12.3016,-59.9703 -4.6131,-19.0674 -19.375,-12.3015 -19.375,-12.3015 0,0 -6.4584,59.9702 -17.5298,66.4285 -11.0714,6.4584 24.6032,5.8433 24.6032,5.8433 z"
           id="path32"
           sodipodi:nodetypes="cscsc" />
        <path
           style="opacity:1;fill:#a57e08;fill-opacity:1;stroke:none;stroke-width:30;stroke-dasharray:none;stroke-opacity:1"
           d="m 1214.4746,1747.1336 c 0,0 20.2977,-47.3612 27.0635,-51.9743 6.7659,-4.6131 -15.6845,-14.4543 -15.6845,-14.4543 0,0 1.5377,14.4543 -5.2282,22.1428 -6.7658,7.6885 -12.9166,12.3016 -17.5297,24.9108 -4.6131,12.6091 -2.4604,15.6845 -2.4604,15.6845 z"
           id="path33" />
        <path
           style="opacity:1;fill:#a57e08;fill-opacity:1;stroke:none;stroke-width:30;stroke-dasharray:none;stroke-opacity:1"
           d="m 1115.4468,1678.8597 c 0,0 21.8354,-43.6706 29.2163,-45.5159 7.381,-1.8452 -11.6865,-15.0694 -11.6865,-15.0694 0,0 -1.8452,14.1468 -11.0714,21.2202 -9.2262,7.0734 -24.9108,17.5298 -23.3731,25.2183 1.5377,7.6885 16.9147,14.1468 16.9147,14.1468 z"
           id="path34" />
        <path
           style="opacity:1;fill:#a57e08;fill-opacity:1;stroke:none;stroke-width:30;stroke-dasharray:none;stroke-opacity:1"
           d="m 1041.3297,1600.1295 c 0,0 22.758,-39.0575 27.3711,-41.8254 4.6131,-2.7678 -3.998,-11.0714 -3.998,-11.0714 0,0 -2.4604,6.7659 -14.4544,13.5317 -11.9941,6.7659 -20.9127,8.9187 -22.758,15.9921 -1.8452,7.0734 13.8393,23.373 13.8393,23.373 z"
           id="path35" />
        <path
           style="opacity:1;fill:#a57e08;fill-opacity:1;stroke:none;stroke-width:30;stroke-dasharray:none;stroke-opacity:1"
           d="m 825.4368,1221.5481 c 0,0 23.37303,-40.2878 23.98811,-47.9763 0.61508,-7.6884 -11.68652,-11.6865 -11.68652,-11.6865 0,0 -6.45833,12.3016 -15.37699,19.6826 -8.91865,7.3809 -8.30357,14.7619 -16.91468,16.2996 -8.61112,1.5377 19.99008,23.6806 19.99008,23.6806 z"
           id="path36" />
        <path
           style="opacity:1;fill:#a57e08;fill-opacity:1;stroke:none;stroke-width:30;stroke-dasharray:none;stroke-opacity:1"
           d="m 755.01019,1174.1869 c 0,0 5.22818,-39.3651 10.76389,-46.1309 5.53572,-6.7659 -4.30555,-2.1528 -4.30555,-2.1528 0,0 -33.2143,24.9107 -31.36906,37.2123 1.84524,12.3016 24.91072,11.0714 24.91072,11.0714 z"
           id="path37" />
        <path
           style="opacity:1;fill:#a57e08;fill-opacity:1;stroke:none;stroke-width:30;stroke-dasharray:none;stroke-opacity:1"
           d="m 664.28595,1145.5857 c 0,0 -6.1508,-28.6012 -3.99802,-36.2897 2.15278,-7.6885 -13.22421,-7.3809 -13.22421,-7.3809 0,0 -7.99603,32.9067 -4.92063,40.2877 3.07539,7.3809 22.14286,3.3829 22.14286,3.3829 z"
           id="path38" />
        <path
           style="opacity:1;fill:#a57e08;fill-opacity:1;stroke:none;stroke-width:30;stroke-dasharray:none;stroke-opacity:1"
           d="m 575.09941,1151.1214 c 0,0 -31.36906,-29.5238 -29.52382,-34.1369 1.84524,-4.6131 -8.61111,-1.2301 -8.61111,-1.2301 0,0 13.83929,39.0575 12.91667,43.3631 -0.92262,4.3055 25.21826,-7.9961 25.21826,-7.9961 z"
           id="path39" />
        <path
           style="opacity:1;fill:#a57e08;fill-opacity:1;stroke:none;stroke-width:30;stroke-dasharray:none;stroke-opacity:1"
           d="m 494.83153,1188.6413 c 0,0 -27.98613,-27.9861 -25.83335,-34.4445 2.15278,-6.4583 -11.37897,3.383 -11.37897,3.383 0,0 12.60913,31.369 13.53175,39.0575 0.92262,7.6885 23.68057,-7.996 23.68057,-7.996 z"
           id="path40" />
        <path
           style="opacity:1;fill:#a57e08;fill-opacity:1;stroke:none;stroke-width:30;stroke-dasharray:none;stroke-opacity:1"
           d="m 432.09341,1239.3854 c 0,0 -30.44644,-11.9941 -33.52184,-14.4544 -3.0754,-2.4603 -7.99603,10.1488 -7.99603,10.1488 0,0 27.98612,12.9167 29.52382,17.2222 1.53769,4.3056 11.99405,-12.9166 11.99405,-12.9166 z"
           id="path41" />
        <path
           style="opacity:1;fill:#a57e08;fill-opacity:1;stroke:none;stroke-width:30;stroke-dasharray:none;stroke-opacity:1"
           d="m 381.0418,1343.3338 c 0,0 -31.6766,4.3056 -37.82739,-0.6151 -6.1508,-4.9206 -3.99802,13.2242 -3.99802,13.2242 0,0 8.91865,0.9227 14.14683,2.7679 5.22818,1.8452 22.14287,5.2282 22.14287,5.2282 z"
           id="path42" />
        <path
           style="opacity:1;fill:#a57e08;fill-opacity:1;stroke:none;stroke-width:30;stroke-dasharray:none;stroke-opacity:1"
           d="m 366.89497,1431.5977 c 0,0 -12.60913,2.1528 -22.14286,-0.9226 -9.53374,-3.0754 -6.45834,8.3036 -6.45834,8.3036 l 33.2143,17.2222 z"
           id="path43" />
        <path
           style="opacity:1;fill:#a57e08;fill-opacity:1;stroke:none;stroke-width:30;stroke-dasharray:none;stroke-opacity:1"
           d="m 389.34538,1511.5581 c 0,0 2.76785,7.6885 -5.53572,13.5317 -8.30357,5.8433 -13.22421,5.2282 -15.68453,6.1508 -2.46032,0.9226 8.91866,21.8353 8.91866,21.8353 0,0 33.21429,1.5377 33.82937,-2.4603 0.61508,-3.998 -21.52778,-39.0575 -21.52778,-39.0575 z"
           id="path44" />
        <path
           style="opacity:1;fill:#a57e08;fill-opacity:1;stroke:none;stroke-width:30;stroke-dasharray:none;stroke-opacity:1"
           d="m 447.53972,1600.6556 c 0,0 5.53572,9.5337 -3.99802,16.9147 -9.53373,7.3809 -17.8373,7.6885 -17.8373,7.6885 l 12.30159,8.9186 c 0,0 31.36906,-11.994 29.21628,-17.8373 -2.15278,-5.8432 -19.68255,-15.6845 -19.68255,-15.6845 z"
           id="path45" />
        <path
           style="opacity:1;fill:#a57e08;fill-opacity:1;stroke:none;stroke-width:30;stroke-dasharray:none;stroke-opacity:1"
           d="m 545.56809,1692.4006 c 0,0 13.22422,-17.5298 11.07144,-24.9108 -2.15278,-7.3809 22.4504,2.7679 22.4504,2.7679 0,0 -3.69048,27.9861 3.0754,30.4464 6.76587,2.4603 -36.59724,-8.3035 -36.59724,-8.3035 z"
           id="path46" />
        <path
           style="opacity:1;fill:#a57e08;fill-opacity:1;stroke:none;stroke-width:30;stroke-dasharray:none;stroke-opacity:1"
           d="m 680.22574,1700.5644 c 0,0 8.69854,-19.1368 0,-27.8354 -8.69854,-8.6985 20.87649,-6.9588 20.87649,-6.9588 0,0 -7.82868,29.575 -3.47941,31.3147 4.34927,1.7397 -17.39708,3.4795 -17.39708,3.4795 z"
           id="path47" />
      </g>
      <g
         id="g7"
         inkscape:label="snake back"
         style="display:inline;fill:#306998;fill-opacity:1">
        <path
           style="display:inline;opacity:1;fill:#306998;fill-opacity:1;stroke:none;stroke-width:73.8095;stroke-dasharray:none;stroke-opacity:1"
           d="m 1617.3125,214.97103 c -43.4459,3.26993 -85.5307,17.57251 -128.3677,24.99463 -108.9725,18.87465 -215.478,85.40335 -273.4581,180.55872 -30.7354,52.9984 -60.3788,109.29853 -68.7237,170.03852 -0.8338,46.39882 9.4898,98.50288 17.9959,144.38511 16.5794,64.57268 44.2826,124.30143 82.3956,178.29368 35.0307,44.42747 87.1834,79.14587 132.1038,113.14831 71.3461,52.9412 150.3775,96.5388 214.0285,159.2047 43.6252,43.0795 78.0003,99.1878 80.873,161.6485 9.4716,85.9275 -32.0331,174.7734 -102.0232,224.9148 -62.1331,45.2911 -143.4311,65.9029 -218.833,47.0174 -94.1209,-20.6528 -173.1503,-89.0666 -218.4111,-173.0691 -46.1933,-76.7038 -73.6958,-165.4805 -128.6435,-236.7883 -3.942,-8.2287 -45.02067,-65.024 -49.94441,-54.9914 12.78524,61.627 45.94021,177.7733 43.55087,241.1444 -0.0891,23.6369 -18.3683,58.8944 -9.01511,61.4747 4.94932,4.294 11.37195,13.24 17.36155,20.6196 18.1657,31.5983 34.76,64.621 60.5712,90.9874 41.263,47.0793 87.1936,91.3491 143.5087,119.9986 64.1946,36.4646 138.9302,55.597 212.8305,48.5446 50.7394,-1.5093 101.297,-12.9361 148.045,-32.5518 73.5282,-36.6784 134.1271,-97.8129 174.0579,-169.2526 22.6944,-46.7446 36.3394,-98.8973 31.6195,-151.154 -1.456,-84.4939 -28.8366,-168.7884 -81.8195,-235.1294 -60.7602,-75.6741 -137.5676,-136.1221 -214.7968,-193.99302 -48.0691,-40.0096 -97.7355,-79.82597 -135.0211,-130.37117 -38.2069,-52.74755 -69.9528,-115.00155 -66.3626,-181.98502 3.5961,-79.86484 40.6001,-158.48952 104.0602,-208.57608 37.8101,-32.21955 91.017,-56.72255 141.2713,-41.31605 62.6534,23.09739 125.1806,52.70178 193.2699,53.60982 48.6241,2.83813 96.8442,7.57746 146.237,13.04193 35.1809,8.14011 59.8527,-30.32284 60.0098,-60.61991 -5.0984,-34.92213 -44.941,-48.10737 -70.3733,-66.25914 -35.7611,-25.10793 -64.1676,-62.79977 -105.9076,-79.17042 -40.8227,-18.83962 -86.6517,-36.96249 -132.0895,-38.39801 z m 103.7763,86.98499 c 15.3304,0.92191 33.1973,7.69921 40.8643,21.68636 5.2715,13.71676 -3.1133,34.1417 -19.7018,32.17635 -15.3402,-0.20095 -32.0095,-10.85999 -37.5967,-25.47294 -4.3983,-12.49555 0.2356,-29.97768 16.4342,-28.38977 z m 142.3957,101.88217 c 9.5999,3.93139 20.041,7.13224 30.086,2.86396 -1.0944,19.56516 -28.9914,11.14461 -30.086,-2.86396 z"
           id="path48"
           inkscape:label="snake back1"
           sodipodi:nodetypes="ccccccccccccccccccccccccccccccccccccccccccc" />
        <path
           style="display:inline;opacity:1;fill:#306998;fill-opacity:1;stroke:none;stroke-width:73.8095;stroke-dasharray:none;stroke-opacity:1"
           d="m 624.84397,1044.3186 c -88.89132,1.2618 -181.70879,38.7259 -245.29181,98.6963 -54.18855,56.5782 -79.31735,138.6824 -89.08083,216.2197 -6.68766,60.7132 -4.16165,128.1617 21.46535,183.9432 43.95115,99.9089 138.58803,186.3252 248.14133,204.7438 107.48326,30.405 232.58969,-14.7342 309.76466,-94.5637 53.80123,-54.6436 89.2184,-135.749 101.06525,-210.9194 6.14662,-62.1483 -4.41868,-122.871 -19.90395,-183.5142 -10.09242,-41.3108 -17.11767,-98.45 -34.07869,-137.5301 -9.60191,-8.7153 -38.07475,9.6129 -48.34301,11.6392 -15.68901,5.1858 7.3351,31.7656 11.26024,41.8167 17.80658,47.8125 31.87839,98.1376 35.28586,148.9105 -0.63048,50.0767 5.3739,101.6787 -10.56254,150.0902 -11.16869,45.8761 -32.43804,86.7489 -65.45647,120.777 -23.22233,28.6948 -49.92129,57.9557 -84.89206,71.5075 -75.7192,33.301 -167.85369,40.6283 -242.86365,1.6995 -49.82252,-23.4105 -95.84561,-58.4003 -122.49842,-107.3587 -19.76901,-33.6279 -33.81319,-71.1207 -41.38338,-109.293 -3.22342,-43.6877 -2.82084,-89.0209 9.83172,-131.3809 23.41992,-63.5127 63.556,-122.1733 120.56521,-160.012 37.84209,-27.2129 82.07746,-45.6241 129.03986,-47.2401 65.20516,-5.4126 132.41901,3.7895 190.09994,36.1447 9.31733,2.8305 62.08863,46.2351 70.99727,37.2687 5.15976,-16.6707 -45.33948,-64.7307 -51.71733,-77.3891 -14.25462,-16.5254 -31.57783,-31.4869 -47.10608,-45.9989 -38.87719,-14.56 -81.96391,-18.4442 -123.2716,-18.2426 -7.02126,-0.1634 -14.04532,-0.154 -21.06687,-0.014 z"
           id="path49"
           sodipodi:nodetypes="cccccccccccccccccccccccccccc"
           inkscape:label="snake back2" />
      </g>
      <g
         id="g53"
         inkscape:label="spots"
         style="fill:#ffd43b;fill-opacity:1">
        <ellipse
           style="opacity:1;fill:#ffd43b;fill-opacity:1;stroke:none;stroke-width:30;stroke-dasharray:none;stroke-opacity:1"
           id="path60"
           cx="1260.0353"
           cy="761.14893"
           rx="25.225763"
           ry="9.7858562"
           transform="rotate(-19.743627)" />
        <ellipse
           style="fill:#ffd43b;fill-opacity:1;stroke:none;stroke-width:20.9716;stroke-dasharray:none;stroke-opacity:1"
           id="path60-3"
           cx="1297.9961"
           cy="943.31659"
           rx="15.651998"
           ry="7.7071257"
           transform="matrix(0.89767912,-0.44064974,0.2538282,0.96724932,0,0)" />
        <ellipse
           style="fill:#ffd43b;fill-opacity:1;stroke:none;stroke-width:42.099;stroke-dasharray:none;stroke-opacity:1"
           id="path60-3-1"
           cx="1356.2457"
           cy="862.92474"
           rx="29.789978"
           ry="16.318148"
           transform="matrix(0.92416353,-0.38199709,0.09760586,0.99522515,0,0)" />
        <ellipse
           style="fill:#ffd43b;fill-opacity:1;stroke:none;stroke-width:17.9938;stroke-dasharray:none;stroke-opacity:1"
           id="path60-3-1-3"
           cx="1343.7441"
           cy="923.05847"
           rx="12.664807"
           ry="7.0120106"
           transform="matrix(0.92243632,-0.38614925,0.09638737,0.9953439,0,0)" />
        <ellipse
           style="fill:#ffd43b;fill-opacity:1;stroke:none;stroke-width:24.2123;stroke-dasharray:none;stroke-opacity:1"
           id="path60-3-1-3-6"
           cx="768.74902"
           cy="1355.8893"
           rx="17.044935"
           ry="9.4334526"
           transform="matrix(0.57687107,-0.81683521,0.59827158,0.8012934,0,0)" />
        <ellipse
           style="fill:#ffd43b;fill-opacity:1;stroke:none;stroke-width:43.2157;stroke-dasharray:none;stroke-opacity:1"
           id="path60-3-1-3-6-2"
           cx="737.93494"
           cy="1412.3329"
           rx="30.464771"
           ry="16.814304"
           transform="matrix(0.48518525,-0.87441139,0.60014673,0.79988993,0,0)" />
        <ellipse
           style="fill:#ffd43b;fill-opacity:1;stroke:none;stroke-width:48.9857;stroke-dasharray:none;stroke-opacity:1"
           id="path60-3-1-3-6-2-5"
           cx="145.17422"
           cy="1369.3104"
           rx="33.904804"
           ry="19.412003"
           transform="matrix(0.19439775,-0.98092279,0.83663856,0.54775534,0,0)" />
        <ellipse
           style="fill:#ffd43b;fill-opacity:1;stroke:none;stroke-width:37.11;stroke-dasharray:none;stroke-opacity:1"
           id="path60-3-1-3-6-2-5-9"
           cx="775.40814"
           cy="1539.7494"
           rx="26.020071"
           ry="14.516624"
           transform="matrix(0.42086541,-0.90712309,0.57872787,0.81552073,0,0)" />
        <ellipse
           style="fill:#ffd43b;fill-opacity:1;stroke:none;stroke-width:28.2257;stroke-dasharray:none;stroke-opacity:1"
           id="path60-3-1-3-6-2-5-9-2"
           cx="43.333202"
           cy="1390.1112"
           rx="18.226147"
           ry="11.9891"
           transform="matrix(0.16435475,-0.9864013,0.86035198,0.50970038,0,0)" />
        <ellipse
           style="display:inline;fill:#ffd43b;fill-opacity:1;stroke:none;stroke-width:39.6668;stroke-dasharray:none;stroke-opacity:1"
           id="path60-3-1-3-6-2-5-9-2-9"
           cx="-905.8429"
           cy="925.84985"
           rx="26.571892"
           ry="16.241432"
           transform="matrix(-0.35646118,-0.93431013,0.99965848,-0.0261327,0,0)" />
        <ellipse
           style="display:inline;fill:#ffd43b;fill-opacity:1;stroke:none;stroke-width:34.1665;stroke-dasharray:none;stroke-opacity:1"
           id="path60-3-1-3-6-2-5-9-2-9-2"
           cx="-958.75122"
           cy="959.16211"
           rx="22.682957"
           ry="14.115393"
           transform="matrix(-0.36291897,-0.9318207,0.99967228,-0.02559966,0,0)" />
        <ellipse
           style="display:inline;fill:#ffd43b;fill-opacity:1;stroke:none;stroke-width:34.3698;stroke-dasharray:none;stroke-opacity:1"
           id="path60-3-1-3-6-2-5-9-2-9-2-4"
           cx="-1209.1171"
           cy="702.96503"
           rx="25.333807"
           ry="12.789267"
           transform="matrix(-0.48018633,-0.87716651,0.9726415,-0.23231126,0,0)"
           inkscape:transform-center-x="2.4603183"
           inkscape:transform-center-y="2.4603183" />
        <ellipse
           style="display:inline;fill:#ffd43b;fill-opacity:1;stroke:none;stroke-width:41.9953;stroke-dasharray:none;stroke-opacity:1"
           id="path60-3-1-3-6-2-5-9-2-9-2-4-6"
           cx="-1285.6351"
           cy="657.83746"
           rx="29.29895"
           ry="16.509832"
           transform="matrix(-0.5399636,-0.84168837,0.97985558,-0.19970739,0,0)"
           inkscape:transform-center-x="3.1996045"
           inkscape:transform-center-y="2.7302922" />
        <ellipse
           style="display:inline;fill:#ffd43b;fill-opacity:1;stroke:none;stroke-width:22.4692;stroke-dasharray:none;stroke-opacity:1"
           id="path60-3-1-3-6-2-5-9-2-9-2-4-6-1"
           cx="-1314.88"
           cy="691.80322"
           rx="15.602047"
           ry="8.8754129"
           transform="matrix(-0.5454111,-0.83816868,0.98040425,-0.19699621,0,0)"
           inkscape:transform-center-x="1.721024"
           inkscape:transform-center-y="1.4478479" />
        <ellipse
           style="display:inline;fill:#ffd43b;fill-opacity:1;stroke:none;stroke-width:22.4692;stroke-dasharray:none;stroke-opacity:1"
           id="path60-3-1-3-6-2-5-9-2-9-2-4-6-1-6"
           cx="-1701.3898"
           cy="323.81607"
           rx="15.602047"
           ry="8.8754129"
           transform="matrix(-0.71107161,-0.7031196,0.91614759,-0.4008411,0,0)"
           inkscape:transform-center-x="1.374055"
           inkscape:transform-center-y="1.7804785" />
        <ellipse
           style="display:inline;fill:#ffd43b;fill-opacity:1;stroke:none;stroke-width:22.4692;stroke-dasharray:none;stroke-opacity:1"
           id="path60-3-1-3-6-2-5-9-2-9-2-4-6-1-6-6"
           cx="-1877.8817"
           cy="68.966827"
           rx="15.602047"
           ry="8.8754129"
           transform="matrix(-0.78848136,-0.61505866,0.86293363,-0.50531728,0,0)"
           inkscape:transform-center-x="1.156235"
           inkscape:transform-center-y="1.929043" />
        <ellipse
           style="display:inline;fill:#ffd43b;fill-opacity:1;stroke:none;stroke-width:32.4555;stroke-dasharray:none;stroke-opacity:1"
           id="path60-3-1-3-6-2-5-9-2-9-2-4-6-1-6-6-4"
           cx="-1621.7098"
           cy="742.78949"
           rx="23.406292"
           ry="12.343501"
           transform="matrix(-0.55076784,-0.83465849,0.95558235,-0.29472422,0,0)"
           inkscape:transform-center-x="2.2319581"
           inkscape:transform-center-y="2.4404115" />
        <ellipse
           style="display:inline;fill:#ffd43b;fill-opacity:1;stroke:none;stroke-width:14.2482;stroke-dasharray:none;stroke-opacity:1"
           id="path60-3-1-3-6-2-5-9-2-9-2-4-6-1-6-6-4-2"
           cx="-1697.0924"
           cy="595.71906"
           rx="9.8186531"
           ry="5.6710243"
           transform="matrix(-0.61031973,-0.79215518,0.96683664,-0.25539561,0,0)"
           inkscape:transform-center-x="1.0375471"
           inkscape:transform-center-y="0.97159179" />
        <ellipse
           style="display:inline;fill:#ffd43b;fill-opacity:1;stroke:none;stroke-width:19.3258;stroke-dasharray:none;stroke-opacity:1"
           id="path60-3-1-3-6-2-5-9-2-9-2-4-6-1-6-6-4-2-1"
           cx="-275.58368"
           cy="1980.8656"
           rx="13.393803"
           ry="7.6482525"
           transform="matrix(0.11785163,-0.99303121,0.86540858,0.50106685,0,0)"
           inkscape:transform-center-x="1.9091397"
           inkscape:transform-center-y="-0.046239109" />
        <ellipse
           style="display:inline;fill:#ffd43b;fill-opacity:1;stroke:none;stroke-width:28.7513;stroke-dasharray:none;stroke-opacity:1"
           id="path60-3-1-3-6-2-5-9-2-9-2-4-6-1-6-6-4-2-1-9"
           cx="-1181.915"
           cy="1630.6326"
           rx="17.664135"
           ry="12.835428"
           transform="matrix(-0.0752949,-0.99716131,0.99670385,0.08112605,0,0)"
           inkscape:transform-center-x="3.363684"
           inkscape:transform-center-y="1.0305649" />
        <ellipse
           style="display:inline;fill:#ffd43b;fill-opacity:1;stroke:none;stroke-width:17.1752;stroke-dasharray:none;stroke-opacity:1"
           id="path60-3-1-3-6-2-5-9-2-9-2-4-6-1-6-6-4-2-1-9-1"
           cx="-1117.3571"
           cy="1660.2029"
           rx="14.152859"
           ry="5.7167473"
           transform="matrix(-0.04154251,-0.99913674,0.98925079,0.14622883,0,0)"
           inkscape:transform-center-x="1.4868924"
           inkscape:transform-center-y="0.82736344" />
        <ellipse
           style="display:inline;fill:#ffd43b;fill-opacity:1;stroke:none;stroke-width:33.4974;stroke-dasharray:none;stroke-opacity:1"
           id="path60-3-1-3-6-2-5-9-2-9-2-4-6-1-6-6-4-2-1-9-1-5"
           cx="-67.839867"
           cy="2216.0095"
           rx="27.202906"
           ry="11.313515"
           transform="matrix(0.54836858,-0.83623675,0.77894727,0.62708943,0,0)"
           inkscape:transform-center-x="3.496374"
           inkscape:transform-center-y="-0.22487826" />
        <ellipse
           style="display:inline;fill:#ffd43b;fill-opacity:1;stroke:none;stroke-width:21.5835;stroke-dasharray:none;stroke-opacity:1"
           id="path60-3-1-3-6-2-5-9-2-9-2-4-6-1-6-6-4-2-1-9-1-5-7"
           cx="-45.885349"
           cy="2248.4792"
           rx="17.870733"
           ry="7.1498032"
           transform="matrix(0.49946521,-0.86633394,0.73751565,0.67533004,0,0)"
           inkscape:transform-center-x="2.0919719"
           inkscape:transform-center-y="-0.15292627" />
        <ellipse
           style="display:inline;fill:#ffd43b;fill-opacity:1;stroke:none;stroke-width:24.2175;stroke-dasharray:none;stroke-opacity:1"
           id="path60-3-1-3-6-2-5-9-2-9-2-4-6-1-6-6-4-2-1-9-1-5-7-3"
           cx="509.00888"
           cy="2228.7271"
           rx="20.469307"
           ry="7.8586583"
           transform="matrix(0.78839231,-0.6151728,0.52963242,0.84822727,0,0)"
           inkscape:transform-center-x="2.3288431"
           inkscape:transform-center-y="-0.86552917" />
        <ellipse
           style="display:inline;fill:#ffd43b;fill-opacity:1;stroke:none;stroke-width:16.8812;stroke-dasharray:none;stroke-opacity:1"
           id="path60-3-1-3-6-2-5-9-2-9-2-4-6-1-6-6-4-2-1-9-1-5-7-3-2"
           cx="437.65466"
           cy="2245.5911"
           rx="14.286422"
           ry="5.471096"
           transform="matrix(0.79058817,-0.61234822,0.53244761,0.84646296,0,0)"
           inkscape:transform-center-x="1.6300191"
           inkscape:transform-center-y="-0.60147355" />
        <ellipse
           style="display:inline;fill:#ffd43b;fill-opacity:1;stroke:none;stroke-width:45.0119;stroke-dasharray:none;stroke-opacity:1"
           id="path60-3-1-3-6-2-5-9-2-9-2-4-6-1-6-6-4-2-1-9-1-5-7-3-2-8"
           cx="1406.2094"
           cy="1899.782"
           rx="34.611336"
           ry="16.055689"
           transform="matrix(0.981657,-0.19065556,0.0495505,0.99877162,0,0)"
           inkscape:transform-center-x="2.7471925"
           inkscape:transform-center-y="-3.8483408" />
        <ellipse
           style="display:inline;fill:#ffd43b;fill-opacity:1;stroke:none;stroke-width:31.7569;stroke-dasharray:none;stroke-opacity:1"
           id="path60-3-1-3-6-2-5-9-2-9-2-4-6-1-6-6-4-2-1-9-1-5-7-3-2-8-6"
           cx="1661.2743"
           cy="1694.9154"
           rx="25.405981"
           ry="10.887647"
           transform="matrix(0.99999569,-0.00293609,-0.15005924,0.98867701,0,0)"
           inkscape:transform-center-x="1.4510184"
           inkscape:transform-center-y="-2.9077461" />
        <ellipse
           style="display:inline;fill:#ffd43b;fill-opacity:1;stroke:none;stroke-width:26.8377;stroke-dasharray:none;stroke-opacity:1"
           id="path60-3-1-3-6-2-5-9-2-9-2-4-6-1-6-6-4-2-1-9-1-5-7-3-2-8-6-1"
           cx="1810.6052"
           cy="1336.3096"
           rx="18.244522"
           ry="10.828116"
           transform="matrix(0.97997373,0.19912681,-0.30802934,0.95137686,0,0)"
           inkscape:transform-center-x="0.42968778"
           inkscape:transform-center-y="-3.0586998" />
        <ellipse
           style="display:inline;fill:#ffd43b;fill-opacity:1;stroke:none;stroke-width:25.4369;stroke-dasharray:none;stroke-opacity:1"
           id="path60-3-1-3-6-2-5-9-2-9-2-4-6-1-6-6-4-2-1-9-1-5-7-3-2-8-6-1-4"
           cx="2020.3369"
           cy="355.44159"
           rx="17.268221"
           ry="10.277204"
           transform="matrix(0.74274378,0.66957575,-0.70949066,0.70471484,0,0)"
           inkscape:transform-center-x="-1.0175548"
           inkscape:transform-center-y="-2.8217137" />
        <ellipse
           style="display:inline;fill:#ffd43b;fill-opacity:1;stroke:none;stroke-width:34.6906;stroke-dasharray:none;stroke-opacity:1"
           id="path60-3-1-3-6-2-5-9-2-9-2-4-6-1-6-6-4-2-1-9-1-5-7-3-2-8-6-1-4-0"
           cx="1977.3245"
           cy="440.10095"
           rx="23.579092"
           ry="13.998837"
           transform="matrix(0.75938523,0.65064128,-0.7271638,0.68646399,0,0)"
           inkscape:transform-center-x="-1.4205154"
           inkscape:transform-center-y="-3.7440157" />
        <ellipse
           style="display:inline;fill:#ffd43b;fill-opacity:1;stroke:none;stroke-width:48.6271;stroke-dasharray:none;stroke-opacity:1"
           id="path60-3-1-3-6-2-5-9-2-9-2-4-6-1-6-6-4-2-1-9-1-5-7-3-2-8-6-1-4-0-7"
           cx="1901.1294"
           cy="-156.71962"
           rx="33.777618"
           ry="19.20096"
           transform="matrix(0.5445873,0.83870416,-0.86310317,0.50502763,0,0)"
           inkscape:transform-center-x="-3.1141933"
           inkscape:transform-center-y="-4.7355828" />
        <ellipse
           style="display:inline;fill:#ffd43b;fill-opacity:1;stroke:none;stroke-width:27.5719;stroke-dasharray:none;stroke-opacity:1"
           id="path60-3-1-3-6-2-5-9-2-9-2-4-6-1-6-6-4-2-1-9-1-5-7-3-2-8-6-1-4-0-7-5"
           cx="1896.3596"
           cy="92.083473"
           rx="18.236933"
           ry="11.433446"
           transform="matrix(0.63027316,0.77637346,-0.90571714,0.4238826,0,0)"
           inkscape:transform-center-x="-1.9459155"
           inkscape:transform-center-y="-2.3667988" />
        <ellipse
           style="display:inline;fill:#ffd43b;fill-opacity:1;stroke:none;stroke-width:19.337;stroke-dasharray:none;stroke-opacity:1"
           id="path60-3-1-3-6-2-5-9-2-9-2-4-6-1-6-6-4-2-1-9-1-5-7-3-2-8-6-1-4-0-7-5-7"
           cx="1762.7228"
           cy="-307.79099"
           rx="13.276465"
           ry="7.7248516"
           transform="matrix(0.45531998,0.89032787,-0.92873787,0.37073705,0,0)"
           inkscape:transform-center-x="-1.4911029"
           inkscape:transform-center-y="-1.6559911" />
        <ellipse
           style="display:inline;fill:#ffd43b;fill-opacity:1;stroke:none;stroke-width:40.7571;stroke-dasharray:none;stroke-opacity:1"
           id="path60-3-1-3-6-2-5-9-2-9-2-4-6-1-6-6-4-2-1-9-1-5-7-3-2-8-6-1-4-0-7-5-7-1"
           cx="1692.3524"
           cy="-303.51694"
           rx="27.614971"
           ry="16.498878"
           transform="matrix(0.47006307,0.88263283,-0.93374972,0.35792662,0,0)"
           inkscape:transform-center-x="-3.2019028"
           inkscape:transform-center-y="-3.4146712" />
        <ellipse
           style="display:inline;fill:#ffd43b;fill-opacity:1;stroke:none;stroke-width:25.7162;stroke-dasharray:none;stroke-opacity:1"
           id="path60-3-1-3-6-2-5-9-2-9-2-4-6-1-6-6-4-2-1-9-1-5-7-3-2-8-6-1-4-0-7-5-7-1-5"
           cx="1549.1649"
           cy="-525.09064"
           rx="17.423992"
           ry="10.410163"
           transform="matrix(0.33672848,0.94160179,-0.97587027,0.21835115,0,0)"
           inkscape:transform-center-x="-2.3121355"
           inkscape:transform-center-y="-1.8378674" />
        <ellipse
           style="display:inline;fill:#ffd43b;fill-opacity:1;stroke:none;stroke-width:28.0604;stroke-dasharray:none;stroke-opacity:1"
           id="path60-3-1-3-6-2-5-9-2-9-2-4-6-1-6-6-4-2-1-9-1-5-7-3-2-8-6-1-4-0-7-5-7-1-5-1"
           cx="1570.7578"
           cy="-377.30045"
           rx="19.420321"
           ry="11.120462"
           transform="matrix(0.43503118,0.90041539,-0.93818454,0.34613547,0,0)"
           inkscape:transform-center-x="-2.1939706"
           inkscape:transform-center-y="-2.3448278" />
        <ellipse
           style="display:inline;fill:#ffd43b;fill-opacity:1;stroke:none;stroke-width:21.2321;stroke-dasharray:none;stroke-opacity:1"
           id="path60-3-1-3-6-2-5-9-2-9-2-4-6-1-6-6-4-2-1-9-1-5-7-3-2-8-6-1-4-0-7-5-7-1-5-1-3"
           cx="174.74448"
           cy="1247.9688"
           rx="11.759134"
           ry="10.51481"
           transform="matrix(0.98470229,-0.17424525,0.44670206,0.89468278,0,0)"
           inkscape:transform-center-x="2.1339954"
           inkscape:transform-center-y="-2.3932235" />
        <ellipse
           style="display:inline;fill:#ffd43b;fill-opacity:1;stroke:none;stroke-width:18.1607;stroke-dasharray:none;stroke-opacity:1"
           id="path60-3-1-3-6-2-5-9-2-9-2-4-6-1-6-6-4-2-1-9-1-5-7-3-2-8-6-1-4-0-7-5-7-1-5-1-3-0"
           cx="-157.85402"
           cy="1307.7018"
           rx="11.657146"
           ry="7.7600417"
           transform="matrix(0.99331749,-0.11541392,0.6052786,0.7960137,0,0)"
           inkscape:transform-center-x="2.1340157"
           inkscape:transform-center-y="-1.571461" />
        <ellipse
           style="display:inline;fill:#ffd43b;fill-opacity:1;stroke:none;stroke-width:23.7881;stroke-dasharray:none;stroke-opacity:1"
           id="path60-3-1-3-6-2-5-9-2-9-2-4-6-1-6-6-4-2-1-9-1-5-7-3-2-8-6-1-4-0-7-5-7-1-5-1-3-0-9"
           cx="-791.88171"
           cy="1419.1858"
           rx="15.268578"
           ry="10.165145"
           transform="matrix(0.86056923,-0.50933349,0.87800097,0.47865885,0,0)"
           inkscape:transform-center-x="3.3944927"
           inkscape:transform-center-y="-0.73721605" />
        <ellipse
           style="display:inline;fill:#ffd43b;fill-opacity:1;stroke:none;stroke-width:34.4422;stroke-dasharray:none;stroke-opacity:1"
           id="path60-3-1-3-6-2-5-9-2-9-2-4-6-1-6-6-4-2-1-9-1-5-7-3-2-8-6-1-4-0-7-5-7-1-5-1-3-0-9-3"
           cx="-695.72272"
           cy="1240.5894"
           rx="22.189447"
           ry="14.66312"
           transform="matrix(0.80426135,-0.59427577,0.82668762,0.56266115,0,0)"
           inkscape:transform-center-x="4.6103101"
           inkscape:transform-center-y="-1.2500571" />
        <ellipse
           style="display:inline;fill:#ffd43b;fill-opacity:1;stroke:none;stroke-width:21.0559;stroke-dasharray:none;stroke-opacity:1"
           id="path60-3-1-3-6-2-5-9-2-9-2-4-6-1-6-6-4-2-1-9-1-5-7-3-2-8-6-1-4-0-7-5-7-1-5-1-3-0-9-3-2"
           cx="-1327.442"
           cy="844.94446"
           rx="12.739929"
           ry="9.5449047"
           transform="matrix(0.36385423,-0.9314559,0.9999614,-0.00878619,0,0)"
           inkscape:transform-center-x="2.928365"
           inkscape:transform-center-y="0.90698604" />
        <ellipse
           style="display:inline;fill:#ffd43b;fill-opacity:1;stroke:none;stroke-width:9.86363;stroke-dasharray:none;stroke-opacity:1"
           id="path60-3-1-3-6-2-5-9-2-9-2-4-6-1-6-6-4-2-1-9-1-5-7-3-2-8-6-1-4-0-7-5-7-1-5-1-3-0-9-3-2-9"
           cx="-1332.8938"
           cy="-32.939201"
           rx="5.8452911"
           ry="4.5651841"
           transform="matrix(-0.26909403,-0.96311391,0.78390944,-0.62087518,0,0)"
           inkscape:transform-center-x="0.85126936"
           inkscape:transform-center-y="1.1865711" />
        <ellipse
           style="display:inline;fill:#ffd43b;fill-opacity:1;stroke:none;stroke-width:15.7559;stroke-dasharray:none;stroke-opacity:1"
           id="path60-3-1-3-6-2-5-9-2-9-2-4-6-1-6-6-4-2-1-9-1-5-7-3-2-8-6-1-4-0-7-5-7-1-5-1-3-0-9-3-2-9-2"
           cx="-1420.5114"
           cy="-149.41843"
           rx="8.9550457"
           ry="7.6034584"
           transform="matrix(-0.30813978,-0.95134109,0.82569263,-0.56412028,0,0)"
           inkscape:transform-center-x="1.493409"
           inkscape:transform-center-y="1.7955605" />
        <ellipse
           style="display:inline;fill:#ffd43b;fill-opacity:1;stroke:none;stroke-width:15.7559;stroke-dasharray:none;stroke-opacity:1"
           id="path60-3-1-3-6-2-5-9-2-9-2-4-6-1-6-6-4-2-1-9-1-5-7-3-2-8-6-1-4-0-7-5-7-1-5-1-3-0-9-3-2-9-2-4"
           cx="-1157.6646"
           cy="-811.50702"
           rx="8.9550457"
           ry="7.6034584"
           transform="matrix(-0.66632086,-0.74566514,0.52728503,-0.84968847,0,0)"
           inkscape:transform-center-x="0.64042356"
           inkscape:transform-center-y="2.2458998" />
        <ellipse
           style="display:inline;fill:#ffd43b;fill-opacity:1;stroke:none;stroke-width:11.5806;stroke-dasharray:none;stroke-opacity:1"
           id="path60-3-1-3-6-2-5-9-2-9-2-4-6-1-6-6-4-2-1-9-1-5-7-3-2-8-6-1-4-0-7-5-7-1-5-1-3-0-9-3-2-9-2-4-9"
           cx="-1307.3613"
           cy="-894.28809"
           rx="6.6658368"
           ry="5.5182347"
           transform="matrix(-0.71933775,-0.6946605,0.58383856,-0.81186978,0,0)"
           inkscape:transform-center-x="0.51466747"
           inkscape:transform-center-y="1.5573665" />
        <ellipse
           style="display:inline;fill:#ffd43b;fill-opacity:1;stroke:none;stroke-width:11.5806;stroke-dasharray:none;stroke-opacity:1"
           id="path60-3-1-3-6-2-5-9-2-9-2-4-6-1-6-6-4-2-1-9-1-5-7-3-2-8-6-1-4-0-7-5-7-1-5-1-3-0-9-3-2-9-2-4-9-2"
           cx="206.28732"
           cy="-1839.0684"
           rx="6.6658368"
           ry="5.5182347"
           transform="matrix(-0.9577099,0.28773556,-0.42264394,-0.90629581,0,0)"
           inkscape:transform-center-x="-1.1067125"
           inkscape:transform-center-y="1.2104961" />
        <ellipse
           style="display:inline;fill:#ffd43b;fill-opacity:1;stroke:none;stroke-width:9.47076;stroke-dasharray:none;stroke-opacity:1"
           id="path60-3-1-3-6-2-5-9-2-9-2-4-6-1-6-6-4-2-1-9-1-5-7-3-2-8-6-1-4-0-7-5-7-1-5-1-3-0-9-3-2-9-2-4-9-2-1"
           cx="208.4809"
           cy="-1891.8749"
           rx="6.4861832"
           ry="3.7929151"
           transform="matrix(-0.99841598,-0.05626303,-0.41520555,-0.90972762,0,0)"
           inkscape:transform-center-x="-0.90855194"
           inkscape:transform-center-y="0.96084789" />
        <ellipse
           style="display:inline;fill:#ffd43b;fill-opacity:1;stroke:none;stroke-width:9.47076;stroke-dasharray:none;stroke-opacity:1"
           id="path60-3-1-3-6-2-5-9-2-9-2-4-6-1-6-6-4-2-1-9-1-5-7-3-2-8-6-1-4-0-7-5-7-1-5-1-3-0-9-3-2-9-2-4-9-2-1-6"
           cx="1349.9673"
           cy="-2039.895"
           rx="6.4861832"
           ry="3.7929151"
           transform="matrix(-0.81158353,0.5842364,-0.89498624,-0.44609374,0,0)"
           inkscape:transform-center-x="-1.3106677"
           inkscape:transform-center-y="0.17552879" />
        <ellipse
           style="display:inline;fill:#ffd43b;fill-opacity:1;stroke:none;stroke-width:19.5384;stroke-dasharray:none;stroke-opacity:1"
           id="path60-3-1-3-6-2-5-9-2-9-2-4-6-1-6-6-4-2-1-9-1-5-7-3-2-8-6-1-4-0-7-5-7-1-5-1-3-0-9-3-2-9-2-4-9-2-1-6-8"
           cx="998.90137"
           cy="-1834.6073"
           rx="13.619184"
           ry="7.6880708"
           transform="matrix(-0.74235,0.67001229,-0.84802659,-0.52995368,0,0)"
           inkscape:transform-center-x="-2.5173066"
           inkscape:transform-center-y="0.42278459" />
        <ellipse
           style="display:inline;fill:#ffd43b;fill-opacity:1;stroke:none;stroke-width:21.0924;stroke-dasharray:none;stroke-opacity:1"
           id="path60-3-1-3-6-2-5-9-2-9-2-4-6-1-6-6-4-2-1-9-1-5-7-3-2-8-6-1-4-0-7-5-7-1-5-1-3-0-9-3-2-9-2-4-9-2-1-6-8-7"
           cx="1569.4934"
           cy="-1511.004"
           rx="13.882236"
           ry="8.7898407"
           transform="matrix(-0.39858813,0.91713003,-0.99724237,-0.07421355,0,0)"
           inkscape:transform-center-x="-2.7841154"
           inkscape:transform-center-y="-0.77189027" />
        <ellipse
           style="display:inline;fill:#ffd43b;fill-opacity:1;stroke:none;stroke-width:13.7789;stroke-dasharray:none;stroke-opacity:1"
           id="path60-3-1-3-6-2-5-9-2-9-2-4-6-1-6-6-4-2-1-9-1-5-7-3-2-8-6-1-4-0-7-5-7-1-5-1-3-0-9-3-2-9-2-4-9-2-1-6-8-7-2"
           cx="1443.3243"
           cy="-1383.9783"
           rx="10.114933"
           ry="5.148232"
           transform="matrix(-0.31982523,0.94747656,-0.99544115,-0.09537779,0,0)"
           inkscape:transform-center-x="-1.6276997"
           inkscape:transform-center-y="-0.58106681" />
        <ellipse
           style="display:inline;fill:#ffd43b;fill-opacity:1;stroke:none;stroke-width:17.2188;stroke-dasharray:none;stroke-opacity:1"
           id="path60-3-1-3-6-2-5-9-2-9-2-4-6-1-6-6-4-2-1-9-1-5-7-3-2-8-6-1-4-0-7-5-7-1-5-1-3-0-9-3-2-9-2-4-9-2-1-6-8-7-2-1"
           cx="1621.6659"
           cy="-1012.3234"
           rx="12.012854"
           ry="6.7694201"
           transform="matrix(-0.04335257,0.99905984,-0.98093123,0.19435513,0,0)"
           inkscape:transform-center-x="-1.8356324"
           inkscape:transform-center-y="-1.2499867" />
        <ellipse
           style="display:inline;fill:#ffd43b;fill-opacity:1;stroke:none;stroke-width:14.4297;stroke-dasharray:none;stroke-opacity:1"
           id="path60-3-1-3-6-2-5-9-2-9-2-4-6-1-6-6-4-2-1-9-1-5-7-3-2-8-6-1-4-0-7-5-7-1-5-1-3-0-9-3-2-9-2-4-9-2-1-6-8-7-2-1-3"
           cx="1638.4078"
           cy="-1020.5513"
           rx="12.006912"
           ry="4.7563829"
           transform="matrix(-0.029856,0.99955421,-0.96098175,0.27661178,0,0)"
           inkscape:transform-center-x="-1.2634773"
           inkscape:transform-center-y="-1.250017" />
        <ellipse
           style="display:inline;fill:#ffd43b;fill-opacity:1;stroke:none;stroke-width:11.5042;stroke-dasharray:none;stroke-opacity:1"
           id="path60-3-1-3-6-2-5-9-2-9-2-4-6-1-6-6-4-2-1-9-1-5-7-3-2-8-6-1-4-0-7-5-7-1-5-1-3-0-9-3-2-9-2-4-9-2-1-6-8-7-2-1-3-1"
           cx="1582.8286"
           cy="-709.00055"
           rx="7.8063054"
           ry="4.6500516"
           transform="matrix(0.1710891,0.98525556,-0.91998112,0.39196267,0,0)"
           inkscape:transform-center-x="-1.0580124"
           inkscape:transform-center-y="-1.0660287" />
        <ellipse
           style="display:inline;fill:#ffd43b;fill-opacity:1;stroke:none;stroke-width:28.272;stroke-dasharray:none;stroke-opacity:1"
           id="path60-3-1-3-6-2-5-9-2-9-2-4-6-1-6-6-4-2-1-9-1-5-7-3-2-8-6-1-4-0-7-5-7-1-5-1-3-0-9-3-2-9-2-4-9-2-1-6-8-7-2-1-3-1-3"
           cx="1512.7694"
           cy="-348.95212"
           rx="18.419333"
           ry="11.902223"
           transform="matrix(0.40135641,0.91592196,-0.82975039,0.55813465,0,0)"
           inkscape:transform-center-x="-2.1215688"
           inkscape:transform-center-y="-3.0539059" />
        <path
           style="opacity:1;fill:#ffd43b;fill-opacity:1;stroke:none;stroke-width:30;stroke-dasharray:none;stroke-opacity:1"
           d="m 1775.3876,276.33974 c -3.317,7.02869 -21.4741,5.42685 -40.555,-3.5778 -19.0809,-9.00466 -31.8601,-22.00226 -28.5431,-29.03095 3.3169,-7.02869 21.474,-5.42685 40.5549,3.5778 19.081,9.00466 31.8602,22.00226 28.5432,29.03095 z"
           id="path50"
           inkscape:path-effect="#path-effect59"
           inkscape:original-d="m 1723.7605,247.26199 -7.0734,-0.61508 -3.6905,3.99802 -9.2262,8.61112 4.3056,5.53571 19.6826,3.38294 8.9186,2.15278 10.4564,1.5377 4.9206,-1.84524 2.1528,-0.61508 3.3829,4.92063 6.1508,6.1508 3.6905,1.23016 6.7659,0.61508 4.6131,-2.15278 0.615,-3.38294 3.9981,-10.76389 -36.2897,-21.52779 -19.6826,-5.53571 z"
           sodipodi:nodetypes="cccccccccccccccccccc" />
        <path
           style="opacity:1;fill:#ffd43b;fill-opacity:1;stroke:none;stroke-width:30;stroke-dasharray:none;stroke-opacity:1"
           d="m 1603.2217,255.23302 c -4.6514,0.79227 -8.8854,-1.28491 -9.4568,-4.63952 -0.5714,-3.35461 2.7362,-6.71632 7.3877,-7.50858 4.6515,-0.79227 8.8854,1.28491 9.4568,4.63952 0.5714,3.35461 -2.7362,6.71632 -7.3877,7.50858 z"
           id="path51"
           inkscape:path-effect="#path-effect58"
           inkscape:original-d="m 1604.4351,243.26398 -7.6885,1.84523 -2.7679,1.84524 0.6151,4.6131 3.998,3.69048 6.7659,-0.61508 3.6905,-2.46032 1.5377,-3.99802 -1.5377,-3.69048 z" />
        <path
           style="opacity:1;fill:#ffd43b;fill-opacity:1;stroke:none;stroke-width:30;stroke-dasharray:none;stroke-opacity:1"
           d="m 1646.0616,240.85556 c -1.0501,4.80482 -8.3239,7.2963 -16.2465,5.56488 -7.9226,-1.73143 -13.4939,-7.0301 -12.4439,-11.83492 1.0501,-4.80482 8.3239,-7.2963 16.2465,-5.56488 7.9226,1.73143 13.4939,7.0301 12.4439,11.83492 z"
           id="path52"
           inkscape:path-effect="#path-effect57"
           inkscape:original-d="m 1618.2744,239.26596 4.6131,4.30556 9.2262,3.38293 7.0734,-0.61508 5.2282,-2.46031 1.5377,-5.22818 -2.7679,-4.92064 -3.3829,-2.76786 -8.9187,-1.84523 h -8.3036 l -4.9206,4.61309 z" />
        <path
           style="opacity:1;fill:#ffd43b;fill-opacity:1;stroke:none;stroke-width:30;stroke-dasharray:none;stroke-opacity:1"
           d="m 1604.2965,233.21356 c -1.6672,2.77181 -4.6088,4.06241 -6.5702,2.88263 -1.9614,-1.17978 -2.1998,-4.38317 -0.5326,-7.15498 1.6673,-2.77181 4.6089,-4.0624 6.5703,-2.88262 1.9613,1.17978 2.1998,4.38317 0.5325,7.15497 z"
           id="path53"
           inkscape:path-effect="#path-effect56"
           inkscape:original-d="m 1600.1295,236.80564 3.0754,-2.76786 2.4604,-3.99802 -1.2302,-3.38293 -3.3829,-0.61508 -3.383,1.84524 -1.5377,5.22817 1.2302,2.46032 z" />
      </g>
      <path
         style="display:inline;fill:#131416;fill-opacity:1"
         d="m 1389,1818.3027 c -25.687,-1.2327 -58.9793,-6.0089 -79,-11.3336 -6.325,-1.6822 -17.35,-4.5826 -24.5,-6.4452 -36.8622,-9.6031 -89.351,-33.019 -124,-55.3179 -42.0433,-27.0576 -63.8359,-44.5873 -96.1544,-77.3454 -27.0978,-27.4663 -49.3974,-54.7728 -63.9928,-78.3606 -1.70165,-2.75 -7.20578,-11.635 -12.23144,-19.7444 -5.02566,-8.1094 -10.36142,-17.2397 -11.85725,-20.2897 -3.5616,-7.2619 -6.10215,-7.2508 -7.75998,0.034 -1.71597,7.5404 -4.77,15.0636 -11.85198,29.1958 -8.71051,17.382 -22.98405,41.6565 -29.65215,50.4283 -29.69706,39.066 -60.6595,68.6498 -97.8953,93.5362 -22.9471,15.3366 -63.03931,33.94 -90.01833,41.7698 -15.865,4.6043 -53.80343,12.2358 -69.58637,13.9976 -47.4576,5.2976 -94.229,1.5786 -146,-11.609 -34.4834,-8.784 -83.81576,-32.7094 -110.79598,-53.7342 -3.23569,-2.5215 -7.96333,-6.0412 -10.50587,-7.8215 -13.53049,-9.4746 -44.35195,-39.0163 -56.68368,-54.33 -3.29205,-4.0882 -8.07063,-9.908 -10.61908,-12.933 -4.58597,-5.4435 -20.90044,-29.4445 -28.99647,-42.658 -5.34251,-8.7195 -19.64023,-37.259 -24.21835,-48.342 -8.53228,-20.6554 -16.75228,-45.3675 -18.6273,-56 -0.43646,-2.475 -1.74654,-9.0439 -2.91129,-14.5975 -4.38716,-20.9186 -6.31734,-39.824 -6.83051,-66.9025 -0.27101,-14.3 -0.0356,-30.95 0.52315,-37 1.3561,-14.6837 3.96223,-35.9305 5.09037,-41.5 0.50134,-2.475 1.42463,-7.425 2.05177,-11 2.46233,-14.0365 5.92606,-28.5159 8.01378,-33.5 0.46076,-1.1 2.72992,-7.85 5.04257,-15 3.67267,-11.3548 10.39547,-28.6113 13.01264,-33.4017 0.48025,-0.8791 3.22201,-6.7733 6.09278,-13.0983 6.06423,-13.3609 14.49137,-27.6196 28.4272,-48.0987 17.27437,-25.3851 34.17031,-44.8664 58.27043,-67.1867 9.26722,-8.5829 30.75459,-26.1157 35.80394,-29.2146 1.79234,-1.1 8.34406,-5.4115 14.55936,-9.581 6.21529,-4.1696 14.22554,-9.0667 17.80054,-10.8825 3.575,-1.8157 7.71784,-4.1584 9.2063,-5.2059 1.48847,-1.0475 6.20591,-3.4994 10.48319,-5.4486 4.27728,-1.9492 10.25945,-4.6766 13.2937,-6.0609 3.03424,-1.3842 6.86681,-3.1003 8.51681,-3.8134 1.65,-0.7131 5.05763,-2.219 7.57251,-3.3463 7.13546,-3.1985 30.92881,-11.1614 33.35076,-11.1614 1.1972,0 2.65035,-0.4736 3.22922,-1.0525 0.57887,-0.5789 2.15041,-1.1695 3.4923,-1.3126 1.3419,-0.1431 2.89017,-0.5385 3.4406,-0.8787 0.55043,-0.3401 4.8064,-1.5215 9.4577,-2.6251 50.55679,-11.9959 105.21004,-13.9019 159.95691,-5.5785 12.9374,1.967 22.1103,4.0944 30.87338,7.1605 l 7.37337,2.5798 10.30821,15.7442 c 11.52174,17.5978 16.98786,27.282 15.65053,27.7277 -0.49142,0.1638 -2.91129,-0.5671 -5.3775,-1.6242 -5.29098,-2.268 -23.43156,-7.9532 -36.82799,-11.5418 -12.96314,-3.4725 -24.39884,-5.1586 -52,-7.6668 -47.95267,-4.3578 -95.5183,-0.7165 -132,10.105 -25.09017,7.4424 -39.48193,12.6784 -53.82787,19.5835 -16.25219,7.8227 -40.02507,21.4589 -49.17213,28.2054 -3.025,2.2311 -6.85,5.0071 -8.5,6.1688 -22.47131,15.8215 -32.47975,23.988 -46.57742,38.0053 -16.08168,15.99 -24.65898,26.24 -35.56447,42.5 -33.62186,50.13 -53.31852,98.178 -62.31044,152 -4.81723,28.834 -6.3588,66.5783 -3.6161,88.538 4.69013,37.5519 9.0704,57.795 17.95163,82.962 7.85988,22.2728 8.93757,24.8187 17.33428,40.9498 18.51224,35.5643 34.47096,58.4266 58.60812,83.9616 35.03067,37.0593 60.3015,55.7987 104.31347,77.353 7.55832,3.7016 12.81141,5.7744 32.36093,12.7691 11.69003,4.1826 41.38019,10.3195 65,13.4352 52.17433,6.8825 103.31571,1.8108 157.38571,-15.608 30.2193,-9.7353 69.19655,-31.789 97.61429,-55.2311 24.83768,-20.4889 54.09052,-53.5931 69.09763,-78.1948 20.58925,-33.7527 34.8838,-67.5784 46.31709,-109.6017 11.28475,-41.4773 14.4531,-101.8287 7.99724,-152.3331 -4.53131,-35.4485 -12.95873,-78.0362 -21.37146,-108 -1.08093,-3.85 -3.13435,-11.725 -4.56315,-17.5 -7.27078,-29.3876 -20.34369,-69.1719 -26.88782,-81.8269 -1.53124,-2.9611 -1.49674,-3.0877 1.59348,-5.8498 11.93732,-10.6699 14.86368,-13.8787 16.45332,-18.0411 1.6265,-4.2589 1.87885,-4.4603 4.96296,-3.9598 1.78713,0.29 4.72175,1.7986 6.52137,3.3524 29.64658,25.5976 62.87514,59.774 84.10064,86.5 15.2562,19.2095 31.4982,42.4779 38.3889,54.9961 3.1272,5.681 6.4686,11.4541 7.4253,12.8291 1.8716,2.6896 18.3171,32.7626 25.9755,47.5 2.5724,4.95 7.0396,13.2639 9.9272,18.4754 2.8876,5.2115 10.3561,19.4378 16.5967,31.6141 6.2406,12.1763 12.3483,23.8873 13.5725,26.0246 1.2243,2.1372 4.6892,8.6109 7.6999,14.3859 3.0107,5.775 6.2385,11.625 7.1731,13 0.9345,1.375 4.1027,7 7.0405,12.5 2.9378,5.5 8.3515,14.5 12.0304,20 3.6789,5.5 10.947,16.525 16.1513,24.5 12.8211,19.6468 23.3966,32.602 41.2533,50.536 13.9198,13.9801 26.2145,24.4444 36.0441,30.6779 36.024,22.8447 62.6835,35.3369 89.0371,41.7213 17.7947,4.311 21.1512,4.9313 33.1973,6.1351 15.0757,1.5066 46.5417,0.6969 61.1115,-1.5725 33.8866,-5.2783 73.2222,-21.278 100.6917,-40.9563 10.3969,-7.4479 17.7373,-13.8055 29.4829,-25.5352 12.5075,-12.4906 20.7227,-22.8185 31.2747,-39.3177 9.6698,-15.1199 13.4972,-22.5312 19.6368,-38.0245 6.3884,-16.1213 7.5848,-20.0751 10.1863,-33.6641 3.0597,-15.9827 3.3741,-59.8268 0.545,-76 -4.2354,-24.2124 -10.6804,-43.0865 -21.7997,-63.8399 -9.9131,-18.502 -23.9229,-38.1597 -36.7333,-51.5416 -9.1931,-9.6033 -27.2844,-27.1327 -32.2713,-31.269 -2.5526,-2.1172 -8.6884,-7.2245 -13.6351,-11.3495 -14.8419,-12.3765 -41.557,-32.0931 -52.1657,-38.5 -0.9107,-0.55 -3.4339,-2.377 -5.607,-4.06 -2.1732,-1.683 -6.8762,-5.0398 -10.4512,-7.4597 -17.3301,-11.7302 -52.1273,-35.1682 -66,-44.4549 -23.6393,-15.8248 -26.2112,-17.6582 -51.8591,-36.9677 -7.3475,-5.5317 -14.7718,-11.0785 -16.4986,-12.3261 -5.1233,-3.7017 -9.7755,-7.4536 -15.1667,-12.2316 -2.7926,-2.475 -11.1295,-9.7446 -18.5265,-16.1546 -15.2648,-13.22799 -49.2578,-47.39177 -62.0337,-62.3454 -16.8803,-19.7576 -36.1322,-46.23044 -46.9066,-64.5 -20.6361,-34.99158 -33.7483,-61.89129 -44.3577,-91 -9.1673,-25.15192 -13.5387,-40.94291 -16.0563,-58 -5.8393,-39.56279 -6.9913,-55.72449 -6.2726,-88 0.8685,-38.9976 5.6606,-77.16685 13.5685,-108.07294 6.7101,-26.22467 9.6649,-35.41844 19.0991,-59.42706 1.729,-4.4 3.9572,-10.25 4.9515,-13 4.3573,-12.05082 28.1283,-54.96057 39.8863,-72 15.5519,-22.53745 24.8399,-33.77136 44.3238,-53.60973 52.3441,-53.29663 106.0752,-87.08551 172.3486,-108.38177 22.184,-7.12858 27.5712,-8.42466 79,-19.00605 14.3,-2.94221 32.75,-6.95461 41,-8.91646 8.25,-1.96185 20.53,-4.88723 27.289,-6.50085 26.4801,-6.32183 36.0563,-7.56062 57.711,-7.46558 20.7715,0.0912 22.2733,0.26452 47,5.42496 14.3656,2.99808 40.6908,10.50758 47,13.40719 2.8769,1.32217 13.0814,5.36235 28,11.08583 30.3759,11.65359 57.7735,28.06168 85,50.90543 30.9377,25.95747 41.271,34.21924 50.0126,39.98626 4.9431,3.26108 10.1124,6.67409 11.4874,7.58446 1.375,0.91038 7.45,4.49998 13.5,7.97689 13.4495,7.72937 20.0179,12.70714 28.5619,21.645 13.1645,13.77153 18.53,22.94212 23.031,39.36442 3.4732,12.67205 3.2916,29.33182 -0.4468,41 -1.4978,4.675 -3.8088,10.525 -5.1354,13 -1.3266,2.475 -2.9414,5.47932 -3.5883,6.67626 -2.1199,3.92216 -0.3032,6.67219 9.7089,14.69736 21.1987,16.99165 48.8272,26.79257 84.8687,30.10625 15.1301,1.39107 43.713,-2.59115 56.0938,-7.81506 10.5015,-4.43101 25.2886,-11.66553 25.9148,-12.67868 0.599,-0.96923 6.4914,-1.43638 6.4914,-0.51464 0,1.73565 -5.5123,12.38749 -8.1036,15.65934 -4.5949,5.80154 -17.8315,15.49591 -26.6855,19.5443 -10.3987,4.75467 -23.7539,9.0561 -35.0247,11.28075 -5.1226,1.0111 -9.5189,2.04353 -9.7697,2.29427 -2.2836,2.28363 34.4924,13.50256 56.8362,17.33849 9.3098,1.59829 19.3447,4.60875 21.0513,6.31539 1.5497,1.54962 -7.0723,6.93601 -15.2136,9.50434 -24.9314,7.86513 -59.6282,7.30432 -88.0904,-1.42384 -31.3482,-9.61318 -65.6321,-31.42613 -93.7757,-59.66423 C 1922.9227,480.99413 1916.4787,475 1915.9045,475 c -0.5743,0 -3.026,1.36358 -5.4484,3.03017 -11.0366,7.59344 -29.7652,13.60821 -60.9561,19.57643 -3.7981,0.72674 -111.6971,1.706 -163,1.47934 -26.0855,-0.11525 -32.5795,-0.72943 -54.5,-5.15446 -27.3571,-5.52251 -37.4169,-8.69846 -54.5,-17.20614 -14.2169,-7.08024 -23.4799,-13.14383 -36.8613,-24.12954 -25.8821,-25.34246 -57.5343,-3.13299 -82.3053,14.78756 -22.6287,17.44943 -43.258,38.39191 -54.7848,55.61664 -14.3482,21.44077 -25.8282,50.7735 -31.7012,81 -1.8984,9.77068 -2.2333,14.80827 -2.2271,33.5 0.01,23.02819 0.7303,30.22203 5.0237,50 7.7284,35.60213 20.3531,62.79403 43.1781,93 10.9982,14.55462 31.1167,35.41352 50.1779,52.02456 20.049,17.47186 35.5146,29.30383 60.1625,46.02726 26.1406,17.73624 42.867,29.39379 47.5058,33.10943 2.2926,1.83631 4.4523,3.33875 4.7994,3.33875 0.5344,0 15.8783,10.02151 26.0323,17.00237 1.65,1.13437 6.825,4.57636 11.5,7.64886 10.573,6.94879 23.3349,15.64981 24,16.36318 0.275,0.29494 3.875,2.97969 8,5.96612 4.125,2.98642 11.775,8.85155 17,13.03363 5.225,4.18208 11.1228,8.70224 13.1062,10.04481 1.9835,1.34257 5.8085,4.30709 8.5,6.58783 2.6916,2.28074 6.9665,5.88074 9.4997,8 28.8817,24.1617 67.8952,64.326 85.6324,88.1584 2.3311,3.1321 4.8566,6.3698 5.6121,7.1948 2.6723,2.9179 26.7937,39.3386 29.7233,44.8789 1.6348,3.0916 3.9299,7.1961 5.1001,9.1211 1.1702,1.925 4.7499,8.675 7.9549,15 3.2049,6.325 6.4917,12.625 7.304,14 1.9448,3.292 7.9098,16.1974 10.3998,22.5 1.0865,2.75 3.853,9.725 6.148,15.5 14.9625,37.6522 25.327,81.624 28.9921,123 4.5442,51.3002 0.5358,108.5484 -10.4663,149.4791 -4.8374,17.9968 -15.5315,50.0079 -18.4643,55.2704 -0.5366,0.9628 -3.8769,7.9252 -7.4229,15.472 -15.6627,33.3341 -37.9922,68.5092 -58.8967,92.7785 -10.9129,12.6693 -41.0079,42.689 -52.2224,52.0916 -30.9984,25.99 -65.2901,47.8987 -103.9773,66.4302 -16.408,7.8595 -22.3449,10.3839 -42.212,17.9486 -22.7977,8.6806 -60.5308,19.2086 -83.8864,23.4054 -31.424,5.6466 -79.883,8.2765 -118.4243,6.4269 z m 70,-35.2006 c 17.397,-2.0209 31.7036,-4.1047 38.5,-5.6077 3.85,-0.8513 14.3206,-3.1057 23.268,-5.0096 25.7048,-5.4697 58.0681,-15.5813 76.7132,-23.9683 14.655,-6.5922 32.0226,-13.8498 33.1426,-13.8498 0.7569,0 1.3762,-0.3443 1.3762,-0.7651 0,-0.4208 4.3875,-3.1242 9.75,-6.0075 52.1316,-28.0301 101.5115,-70.4672 134.3181,-115.4331 15.9962,-21.925 26.4012,-39.7547 41.703,-71.461 10.3152,-21.3737 19.8771,-49.0303 25.5847,-74 4.943,-21.6248 7.6319,-52.668 7.6396,-88.1955 0.01,-45.8081 -2.7895,-63.8316 -19.927,-128.3045 -7.9149,-29.7767 -35.7654,-85.5068 -60.8668,-121.7973 -17.4145,-25.1771 -26.7512,-36.4973 -47.0447,-57.0388 -30.5841,-30.9581 -50.3928,-48.5652 -76.6008,-68.0875 -6.5691,-4.89334 -14.6572,-11.08342 -17.9735,-13.75574 -6.5504,-5.27839 -22.3232,-15.97551 -29.6907,-20.13625 -2.5345,-1.43133 -8.2972,-5.33773 -12.8062,-8.68089 -4.5089,-3.34317 -15.2602,-10.85494 -23.8919,-16.69284 -8.6316,-5.8379 -19.1619,-13.22146 -23.4006,-16.40792 -11.2564,-8.46194 -26.349,-18.90957 -33.7932,-23.39292 -8.8294,-5.31757 -18.0793,-12.17245 -40.5,-30.01334 -32.5376,-25.89126 -37.1152,-30.22756 -63.0389,-59.71501 -12.7603,-14.51445 -15.0265,-17.53003 -24.9921,-33.25581 -16.2601,-25.65835 -29.1999,-54.97302 -32.4551,-73.52568 -0.6273,-3.575 -2.6794,-12.8 -4.5602,-20.5 -4.7837,-19.5839 -5.3767,-25.78595 -5.0205,-52.5 0.4627,-34.7073 2.0206,-42.97126 15.3884,-81.63107 10.0202,-28.97888 27.6943,-56.38036 53.6137,-83.12143 18.8431,-19.44047 23.3573,-23.15922 50.9121,-41.94124 8.2436,-5.61904 30.4536,-15.82828 42.4432,-19.5098 7.4503,-2.28769 12.3851,-3.10515 21.2094,-3.51341 19.753,-0.91388 27.8049,2.54406 46,19.75513 9.7967,9.26681 17.0796,14.55249 26.6955,19.37459 16.3364,8.19221 46.694,16.36714 69.3045,18.66283 11.7259,1.19056 86.0621,0.51313 100,-0.91131 3.575,-0.36536 9.2,-0.37563 12.5,-0.0228 10.338,1.10525 70.1421,0.93024 77.8084,-0.2277 34.7924,-5.25512 61.6569,-23.41045 69.1913,-46.7603 1.3004,-4.03009 1.6289,-7.74287 1.3343,-15.07887 -0.3426,-8.52978 -0.7952,-10.5534 -3.6623,-16.3774 -6.3108,-12.81914 -19.0844,-24.04979 -45.1717,-39.71538 -19.6913,-11.82479 -29.9417,-18.93661 -37.5,-26.01786 -16.5054,-15.46374 -31.9599,-28.17387 -48.3072,-39.72909 -12.6706,-8.95628 -20.9316,-13.56281 -32.7211,-18.24611 -4.1636,-1.65398 -8.5606,-3.65311 -9.771,-4.44253 -1.2104,-0.78941 -7.1507,-3.42258 -13.2007,-5.85147 -6.05,-2.42889 -14.1921,-6.02406 -18.0936,-7.98926 -13.5558,-6.8282 -58.167,-18.52813 -79.4064,-20.82549 -19.7361,-2.13475 -32.1886,-0.63539 -66.8359,8.04745 -14.6762,3.67798 -31.2144,7.18437 -88.1641,18.69238 -18.2483,3.68749 -40.0083,9.7018 -59.8522,16.54271 -28.2156,9.72694 -69.5577,31.10871 -94.1478,48.69236 -37.7174,26.9706 -62.7299,51.88133 -91.3246,90.95298 -14.0324,19.17381 -34.3312,58.01408 -42.1716,80.69211 -1.5212,4.4 -3.3492,9.35 -4.0624,11 -8.0565,18.64072 -14.69,41.9336 -21.4397,75.28393 -1.6381,8.09384 -3.4667,16.29107 -4.0636,18.21607 -1.5442,4.98034 -3.1445,58.95054 -2.4165,81.5 1.1949,37.0154 5.1966,63.69558 13.1145,87.43743 8.4278,25.2705 24.351,60.64026 37.6194,83.56257 9.8215,16.96737 28.279,46.06337 35.2074,55.5 3.4324,4.675 8.1942,11.425 10.5818,15 2.3876,3.575 8.8668,11.04483 14.3982,16.59963 5.5314,5.5548 12.6633,13.08059 15.8487,16.724 5.9996,6.8623 27.5723,26.99312 44.4917,41.51792 23.9947,20.59883 49.2889,40.05563 73.2167,56.31973 6.875,4.673 23.9584,16.3359 37.9632,25.9176 14.0048,9.5816 26.9287,18.3211 28.7198,19.4211 5.0586,3.1067 39.8881,27.1447 48.817,33.6916 12.2359,8.9718 35.3186,26.1477 41.7659,31.0782 5.9608,4.5585 37.1482,33.7658 39.6453,37.1284 0.7762,1.0451 5.3953,6.4046 10.2647,11.91 30.0029,33.9211 50.1889,70.5219 59.7222,108.2868 4.6636,18.4745 6.1159,29.9382 6.7656,53.405 0.7141,25.7942 -0.7259,39.1286 -6.8575,63.5 -6.7676,26.8998 -13.7632,43.9988 -28.0273,68.506 -16.7062,28.703 -38.982,54.8715 -60.4903,71.0606 -5.0662,3.8134 -9.6203,6.9334 -10.1201,6.9334 -0.4998,0 -5.3547,2.9883 -10.7886,6.6407 -22.6626,15.2325 -38.6242,23.5488 -54.3966,28.3419 -5.7658,1.7522 -11.8333,3.7687 -13.4833,4.4811 -6.461,2.7897 -27.2686,9.4808 -32.0931,10.3202 -2.8012,0.4873 -8.4262,1.0109 -12.5,1.1635 -12.4241,0.4654 -18.0614,0.889 -26.4069,1.9842 -4.4,0.5775 -10.475,0.8415 -13.5,0.5868 -3.025,-0.2547 -8.875,-0.7495 -13,-1.0995 -4.125,-0.35 -9.75,-0.7831 -12.5,-0.9625 -2.75,-0.1793 -9.6208,-0.8039 -15.25,-1.5367 -4.3033,-0.5602 -10.6092,-2.9971 -14.5026,-3.9197 -2.5384,-0.6015 -17.0732,-3.5322 -20.2474,-4.9444 -1.1,-0.4894 -6.1444,-2.2674 -11.2098,-3.951 -17.1676,-5.7063 -52.6332,-22.9824 -67.5739,-32.9169 -30.998,-20.6113 -49.9562,-36.4317 -63.7367,-53.1877 -4.2971,-5.225 -9.4471,-11.3 -11.4444,-13.5 -5.868,-6.4637 -16.0056,-19.6601 -18.6174,-24.235 -1.3298,-2.3292 -7.1926,-11.3292 -13.0285,-20 -11.0021,-16.3465 -14.1713,-21.5739 -23.8057,-39.265 -11.2892,-20.7299 -13.4367,-24.6646 -19.7355,-36.1595 -3.514,-6.4128 -6.8951,-13.1628 -7.5137,-15 -0.6185,-1.8373 -1.468,-3.7905 -1.8878,-4.3405 -0.4197,-0.55 -3.6611,-6.625 -7.2031,-13.5 -3.542,-6.875 -11.3095,-21.95 -17.2611,-33.5 -5.9516,-11.55 -12.0362,-22.8 -13.5215,-25 -1.4852,-2.2 -4.7396,-8.0651 -7.232,-13.0337 -8.4915,-16.9274 -26.8458,-45.8125 -39.0571,-61.4663 -2.3598,-3.025 -6.1215,-8.2 -8.3593,-11.5 -2.23777,-3.3 -7.38605,-10.0973 -11.4406,-15.1051 C 970.93843,1176.0102 967.58519,1172 966.96474,1172 c -0.62617,0 2.46697,13.1583 11.87114,50.5 5.80724,23.0591 14.77581,67.8727 17.14871,85.6874 4.24201,31.8471 4.43001,35.081 4.46611,76.8126 0.038,43.9357 -0.54254,52.7482 -4.90814,74.5 -4.89861,24.4075 -6.54256,33.4613 -6.54256,36.0322 0,5.8536 21.2941,43.1032 44.2852,77.4678 17.9545,26.8364 32.3353,44.8218 54.3382,67.9582 4.4678,4.698 9.1928,9.7275 10.5,11.1767 4.6529,5.1586 34.5845,30.6828 47.1473,40.2049 14.8901,11.2861 35.2507,24.8936 45.2293,30.2277 34.6046,18.4982 66.1272,32.8241 87.7752,39.8907 14.8611,4.8511 59.9092,15.6312 75.4022,18.0439 8.7025,1.3552 22.1226,2.8726 29.8226,3.372 16.7879,1.0888 63.6022,0.6101 75.5,-0.772 z M 1878.5,419.10041 C 1870.9759,417.1797 1862,409.1392 1862,404.32 c 0,-2.92353 0.7042,-2.90342 6.2167,0.17757 6.2155,3.47392 12.1883,4.10803 19.2787,2.04679 4.748,-1.38029 5.9509,-1.44646 6.6365,-0.3651 1.6132,2.54413 0.8369,4.93118 -2.8819,8.86183 -3.994,4.22158 -7.6076,5.37206 -12.75,4.05932 z m -145.6452,-63.07184 c -5.0225,-1.51813 -14.4949,-7.12112 -19.6235,-11.60748 -10.5332,-9.21415 -14.5941,-24.05506 -9.3609,-34.21032 3.9318,-7.62988 14.4479,-11.60563 24.8993,-9.41344 12.9658,2.71961 30.403,13.99782 34.901,22.57364 1.944,3.70647 1.971,15.17785 0.046,19.69997 -2.2714,5.33687 -8.407,10.75952 -14.0805,12.44436 -5.3595,1.59159 -12.4923,1.80976 -16.7817,0.51327 z M 1158.6831,813.8125 c -0.3192,-0.79773 -0.5562,-0.56078 -0.6042,0.60417 -0.043,1.05416 0.193,1.64479 0.5253,1.3125 0.3323,-0.33229 0.3678,-1.1948 0.079,-1.91667 z m 936.0786,-278.49958 c -0.9561,-0.25029 -2.7561,-0.25937 -4,-0.0202 -1.244,0.23919 -0.4617,0.44398 1.7383,0.45508 2.2,0.0111 3.2177,-0.18461 2.2617,-0.4349 z M 1919,472 c 0,-0.55 -0.45,-1 -1,-1 -0.55,0 -1,0.45 -1,1 0,0.55 0.45,1 1,1 0.55,0 1,-0.45 1,-1 z M 610.5,1685.9741 c -11.63966,-1.2853 -19.54559,-2.7811 -32.5,-6.1488 -44.70301,-11.6215 -76.01314,-26.9772 -111.66913,-54.7666 -10.99186,-8.5669 -33.43631,-30.26 -38.85909,-37.5583 -1.63448,-2.1998 -4.83245,-6.3162 -7.10659,-9.1475 -13.23062,-16.4722 -28.58066,-42.9818 -36.76532,-63.4938 -5.5464,-13.9002 -16.33038,-56.1149 -19.53535,-76.4728 -3.1113,-19.7628 -2.68516,-33.4584 1.98781,-63.8863 3.21967,-20.9648 9.40764,-45.1884 14.17758,-55.5 1.14489,-2.475 2.02007,-4.8119 1.94484,-5.193 -0.1253,-0.6349 2.07926,-6.1382 8.33509,-20.807 5.87587,-13.7779 19.25277,-35.8236 28.93778,-47.6907 2.77881,-3.4049 7.07394,-8.7122 9.54474,-11.7939 4.98632,-6.2192 20.25549,-21.2811 29.50764,-29.1069 11.56286,-9.7803 33.08325,-25.0578 42,-29.8161 4.95,-2.6415 9.45,-5.1603 10,-5.5974 2.64243,-2.1 24.99188,-10.8976 42.31344,-16.6561 46.92828,-15.6013 98.02339,-17.9563 147.72585,-6.809 20.49169,4.5959 48.69127,14.4027 62.46071,21.7216 22.31694,11.8621 45.49868,27.5461 57.48305,38.8911 20.41944,19.3301 39.77454,40.5518 45.016,49.3574 2.56645,4.3116 3.02272,4.684 3.31402,2.705 0.57619,-3.9143 -9.6166,-41.6629 -15.31139,-56.705 -1.45757,-3.85 -3.3555,-9.025 -4.21763,-11.5 -0.86212,-2.475 -1.94657,-4.9875 -2.40989,-5.5833 -0.46332,-0.5959 -2.00171,-5.0959 -3.41866,-10 -1.41694,-4.9042 -4.87096,-13.7573 -7.67559,-19.6737 -2.80464,-5.9163 -4.84214,-11.0141 -4.52778,-11.3285 0.31435,-0.3143 6.35379,-0.7301 13.42096,-0.9238 8.48807,-0.2327 14.50454,-0.9142 17.72576,-2.0079 4.02324,-1.3659 5.02787,-1.4217 5.74241,-0.3192 0.47634,0.735 2.69765,7.1864 4.93625,14.3364 2.2386,7.15 5.59002,16.375 7.44759,20.5 5.98583,13.2924 9.5624,23.2814 10.96992,30.6378 0.75635,3.9531 2.28409,8.969 3.39497,11.1466 3.90788,7.66 17.57669,68.9797 19.55276,87.7156 1.50221,14.243 1.8533,18.3143 2.91027,33.7481 1.56359,22.8314 0.50578,64.3895 -2.04271,80.2519 -0.35346,2.2 -0.71244,7.375 -0.79774,11.5 -0.15216,7.3577 -1.48147,13.6814 -9.66976,46 -7.19419,28.395 -16.61412,53.4944 -24.5825,65.5 -2.19029,3.3 -5.1598,8.3276 -6.59892,11.1726 -7.36053,14.5505 -32.50595,44.9646 -46.16139,55.8336 -2.75,2.1888 -7.2961,6.2329 -10.10245,8.9867 -12.6992,12.4618 -24.29059,21.22 -41.96656,31.709 -19.05611,11.308 -32.95466,17.3882 -57.43099,25.1243 -31.9371,10.0941 -41.7711,11.7113 -74,12.169 -14.025,0.1993 -29.1,-0.035 -33.5,-0.5211 z m 58.26077,-36.533 c 32.75826,-5.2433 53.52603,-11.7463 77.78628,-24.357 45.10498,-23.446 80.8114,-58.6406 104.07178,-102.5799 6.55597,-12.3843 14.41143,-31.121 16.98163,-40.5042 9.83408,-35.9019 12.07404,-70.9764 6.89722,-108 -4.1056,-29.3625 -8.88474,-44.7104 -22.26406,-71.5 -4.84692,-9.7051 -18.88168,-30.8506 -26.32334,-39.6602 -8.73747,-10.3436 -31.09571,-32.4466 -39.41028,-38.9603 -15.81784,-12.3918 -37.99149,-25.5444 -52,-30.8444 -3.3,-1.2485 -6.675,-2.5947 -7.5,-2.9915 -0.825,-0.3968 -4.2,-1.5063 -7.5,-2.4656 -3.3,-0.9593 -6.75608,-2.141 -7.68017,-2.626 -2.69802,-1.4159 -24.08113,-6.6678 -34.31983,-8.4293 -14.08105,-2.4225 -54.97331,-3.0595 -69,-1.075 -2.2,0.3113 -5.90753,0.7786 -8.23895,1.0385 -7.60578,0.8478 -30.34589,6.7832 -32.76105,8.5509 -0.55,0.4026 -2.575,1.0531 -4.5,1.4456 -1.925,0.3925 -4.4,1.2804 -5.5,1.9731 -1.1,0.6927 -4.7,2.042 -8,2.9986 -6.10147,1.7686 -17.95456,7.2923 -27,12.5825 -2.75,1.6083 -7.08406,4.0385 -9.63125,5.4003 -8.53372,4.5626 -28.77022,20.4554 -40.50787,31.8129 -19.27902,18.6547 -36.79403,41.6763 -45.83861,60.2499 -7.02002,14.4161 -14.34904,32.5089 -16.42765,40.5541 -1.05805,4.0953 -2.18266,8.1209 -2.49913,8.9459 -0.31647,0.825 -1.98642,8.925 -3.711,18 -5.45243,28.6915 -5.17618,59.5284 0.79281,88.5 3.63231,17.6301 16.08834,52.9326 23.46368,66.5 2.95501,5.4359 13.1564,20.4391 21.37273,31.4328 25.80511,34.5281 63.79465,63.8759 100.98629,78.0143 5.5,2.0909 10.9,4.2045 12,4.697 6.35132,2.8438 37.30319,10.0541 50.47824,11.759 11.72589,1.5173 45.1457,1.2406 55.78253,-0.462 z m 101.9684,-442.0453 c -0.33229,-0.3323 -1.1948,-0.3678 -1.91667,-0.079 -0.79773,0.3192 -0.56078,0.5562 0.60417,0.6042 1.05416,0.043 1.64479,-0.193 1.3125,-0.5253 z"
         id="path1"
         inkscape:label="snake outline"
         sodipodi:nodetypes="sssssssssssssssscsssssssssssssssssssssssssssscsscsssssssscssssssssssssssssssssscssssssssssssssssssssssssssssscsssssssssssssssssssssssssssssssssssssssssssssssssssssssscssssssssssssscssssssscssssssssssssssssssssssssssssssssssssssssssssssssssssssssssssssssscsssssssssssssssssssssssssssssssssssssssssssssssssssssssssssssssssssssssssscsssscsccscssssssssssssscsssssssssssssssssssssssssssssssssssssssssssssscssssssssssssssssssssssssssssssssssscss" />
      <g
         id="g10"
         inkscape:label="probe"
         style="display:inline;stroke:#3c5d72;stroke-opacity:1">
        <path
           style="display:inline;opacity:1;fill:#899c9b;fill-opacity:1;stroke:none;stroke-width:36.9048;stroke-dasharray:none;stroke-opacity:1"
           d="m 648.67591,284.76743 c -23.50116,0.37944 -47.36202,1.95474 -69.45508,10.68997 -48.09678,15.63557 -96.15579,37.04025 -132.52169,73.12904 -25.10953,26.81189 -46.06996,59.34605 -53.32211,95.78904 -1.5402,18.8137 -2.93269,38.00207 -0.60307,56.76991 2.88219,9.77768 15.41355,11.33554 22.96437,5.98122 113.7155,-51.58917 226.73076,-104.71929 339.88883,-157.51724 8.21103,-4.46174 22.3274,-8.74177 19.78396,-20.76795 -5.70694,-14.37079 -18.02949,-25.24927 -29.92746,-34.64628 C 717.24,295.43419 682.8913,283.21461 648.67591,284.76743 Z"
           id="path14"
           inkscape:label="probe lens" />
        <path
           style="display:inline;opacity:1;fill:#747f80;fill-opacity:1;stroke:none;stroke-width:30;stroke-dasharray:none;stroke-opacity:1"
           d="m 394.26128,455.36851 c 0,0 16.74468,42.18792 42.18791,54.58333 25.44323,12.39542 -43.4927,31.53221 -43.4927,31.53221 l -8.26361,-58.71514 z"
           id="path15"
           inkscape:label="probe lens shadow1" />
        <path
           style="opacity:1;fill:#99afaa;fill-opacity:1;stroke:none;stroke-width:30;stroke-dasharray:none;stroke-opacity:1"
           d="m 763.6213,367.81759 c 0,0 -131.31949,-98.72027 -224.81158,-57.2024 -93.4921,41.51787 -32.59922,5.53572 -32.59922,5.53572 l 117.78774,-36.59724 85.8036,9.53373 58.43256,39.05756 21.22025,31.06152 z"
           id="path16"
           inkscape:label="probe lens shadow2" />
        <path
           style="opacity:1;fill:#cbd4d4;fill-opacity:1;stroke:none;stroke-width:36.9048;stroke-dasharray:none;stroke-opacity:1"
           d="m 782.01843,371.78678 c -29.64927,11.56643 -58.19012,26.05854 -87.29455,38.99956 -78.35172,36.54263 -157.154,72.17718 -234.73821,110.32899 -7.46897,2.93089 -15.78859,9.90349 -11.87857,18.82844 11.75567,28.71492 35.95001,51.6777 65.05428,62.38493 26.66208,11.20125 57.90682,17.47862 76.50052,41.69567 20.82614,23.66313 31.32723,54.02894 45.45153,81.73747 23.54881,48.6973 44.50653,98.71741 70.43314,146.22567 15.00449,27.55695 40.69017,49.63191 71.58246,56.88117 22.64239,5.63932 46.92319,5.029 69.36704,-1.05236 14.72701,-8.32665 23.76468,-23.66096 33.82698,-36.77023 10.52081,-14.221 8.9781,-33.29314 7.07821,-49.91515 C 875.5767,788.84654 853.74831,739.4953 835.97304,689.1618 822.0181,649.71968 805.78667,610.92685 795.12492,570.41424 c -6.78819,-25.45366 7.58401,-49.59039 16.55531,-72.47085 9.44403,-20.71316 10.53091,-44.34545 7.3487,-66.57318 -5.60182,-19.83994 -13.73159,-39.65067 -26.79682,-55.76321 -2.66781,-2.78569 -6.34404,-4.27747 -10.21368,-3.82022 z"
           id="path12"
           inkscape:label="probe body" />
        <path
           style="display:inline;opacity:1;fill:#bfccc9;fill-opacity:1;stroke:none;stroke-width:36.9048;stroke-dasharray:none;stroke-opacity:1"
           d="m 864.59046,934.96662 c -11.38217,1.38758 -18.6011,11.7825 -28.42821,16.73929 -6.78226,3.73102 -14.26045,10.57962 -10.42875,19.08981 14.06205,43.41048 25.32908,88.08348 34.16458,132.70028 -0.26692,7.6065 2.80565,17.1792 11.96281,17.2607 11.32518,-0.4568 22.35466,-6.3106 30.90295,-13.4789 10.12461,-11.8366 12.80847,-28.4588 8.17143,-43.1829 -10.76259,-39.5259 -19.49426,-79.62979 -31.29218,-118.85934 -1.95171,-6.47838 -8.28332,-10.89825 -15.05263,-10.26894 z"
           id="path13"
           inkscape:label="probe connector" />
        <path
           style="opacity:1;fill:#a6b6b6;fill-opacity:1;stroke:none;stroke-width:30;stroke-dasharray:none;stroke-opacity:1"
           d="m 820.23593,923.57929 c -3.54873,0.21648 -7.2616,0.36141 -11.0481,0.39457 -16.52918,0.14475 -43.2568,-5.91704 -57.10607,-14.86415 -5.93506,-3.83426 -11.40015,-8.16004 -16.26832,-12.56192 -12.26378,-11.0891 -26.32055,-34.16004 -33.45182,-49.10821 -21.66934,-45.42203 -62.63228,-135.56523 -84.93103,-180.23087 -7.38576,-14.79409 -24.44356,-35.31103 -37.27537,-45.7904 -11.73994,-9.58764 -36.49684,-17.56073 -52.07363,-23.17695 -6.13389,-2.21158 -12.53572,-4.65967 -18.5978,-7.15745 -15.2847,-6.2978 -35.7478,-23.57105 -44.08702,-37.81047 -3.40578,-5.81544 -6.8414,-11.97304 -10.07775,-17.74088 -8.02674,-14.30529 -28.1366,-18.01655 -41.37074,-8.13214 -11.20926,8.37206 -15.92485,28.14727 -10.74748,43.88612 l 2.60347,7.91438 a 101.34402,101.34402 55.301266 0 0 32.75085,47.30047 l 9.83452,7.91037 a 185.44542,185.44542 29.622105 0 0 51.48886,29.27603 l 6.5132,2.42648 a 77.949476,77.949476 41.482777 0 1 41.94972,37.0915 l 52.9009,101.7636 a 1263.3558,1263.3558 61.172424 0 0 28.92237,52.54967 l 44.25441,76.07367 a 80.326335,80.326335 39.332639 0 0 43.47561,35.62576 68.698049,68.698049 42.874251 0 1 36.45195,33.84273 l 17.31913,31.6363 a 400.65435,400.65435 57.019538 0 0 32.57001,50.1909 l 12.57065,16.5236 a 61.116335,61.116335 26.59246 0 0 48.16317,24.1104 c 5.17288,0.04 6.7352,-13.0988 3.25114,-29.2967 -6.95007,-32.3121 -18.73273,-83.8894 -29.52554,-115.84795 -5.26904,-15.60213 -13.47797,-43.10686 -1.43417,-46.98454 0.86919,-0.27985 1.73324,-0.53974 2.57942,-0.78022 5.86948,-1.66808 10.50529,-6.98539 10.15762,-12.65558 z"
           id="path11"
           inkscape:path-effect="#path-effect11"
           inkscape:original-d="m 849.99809,919.95741 c 0,0 -41.03397,8.17669 -70.60901,1.21786 -29.57503,-6.95883 -53.93094,-33.05445 -63.49933,-46.97211 -9.56839,-13.91766 -103.51261,-225.29216 -113.081,-233.12084 -9.5684,-7.82869 -33.05445,-31.31474 -46.10226,-33.92431 -13.04781,-2.60956 -61.3557,-19.74213 -73.93758,-29.57503 -12.93907,-10.11205 -38.38231,-66.87001 -43.92762,-66.76129 -4.34843,0.0853 -45.01494,31.96714 -45.01494,31.96714 l 21.35237,64.9098 56.58732,45.51589 62.73812,23.37302 80.57542,155.00006 74.42463,127.93655 50.43653,17.22223 46.13097,84.26592 48.89883,64.2758 39.36509,0.3075 c 0,0 -30.75398,-155.30756 -48.28375,-172.22224 -17.52977,-16.91469 24.57572,-23.14924 24.57572,-23.14924 z"
           sodipodi:nodetypes="cssssssccccccccccscc"
           inkscape:label="probe shadow" />
        <path
           style="display:inline;opacity:1;fill:none;fill-opacity:1;stroke:#3c5d72;stroke-width:30;stroke-dasharray:none;stroke-opacity:1"
           d="m 866.12015,1121.2823 c 10.19819,-2.9338 31.5396,-10.9898 43.74534,-22.0511 5.5208,-5.0032 12.03067,-24.5592 8.89105,-40.6208 -1.04911,-5.367 -2.5479,-10.7498 -4.13711,-16.1358 -4.68403,-15.8745 -10.8179,-42.0301 -15.30316,-57.97991 -4.86233,-17.29067 -9.99252,-34.49803 -15.77173,-51.50201 -5.33108,-15.68547 -2.13399,-39.10687 4.0449,-54.44844 5.15049,-12.78823 6.06433,-37.80993 2.25984,-53.87701 -3.54859,-14.98636 -10.53984,-39.8547 -16.32413,-55.38076 -21.55513,-57.85778 -43.37122,-115.68254 -63.87767,-173.86964 -5.50706,-15.6263 -15.05375,-41.76757 -12.3346,-57.96228 1.23729,-7.36884 8.09521,-25.7449 14.9492,-40.8083 1.90826,-4.1939 3.79172,-8.39078 5.48061,-12.64437 6.07799,-15.30782 7.56741,-42.59589 5.84502,-59.04924 -1.11562,-10.65706 -8.93441,-31.05542 -17.11656,-45.46244 -9.34241,-16.44996 -19.08019,-32.71726 -29.5267,-48.39335 -9.18663,-13.78551 -28.41875,-32.12686 -42.90764,-40.15786 -2.66628,-1.47788 -5.3607,-2.89396 -8.09335,-4.22603 -13.96412,-6.80701 -38.40715,-14.37295 -53.84409,-16.05327 -13.35758,-1.45395 -36.9591,-1.04696 -52.48584,0.19205 -0.76731,0.0612 -1.53266,0.12542 -2.29535,0.1927 -18.79613,1.65813 -48.34244,10.84563 -66.16773,17.26544 -7.51429,2.70629 -14.93714,5.64023 -22.25224,8.84248 -15.17181,6.64161 -39.08585,19.08305 -52.76738,28.39714 -4.66143,3.17341 -9.23405,6.49353 -13.75384,9.87776 -13.2614,9.9296 -32.14753,28.77857 -41.60074,42.38379 -5.56733,8.01258 -10.86902,16.18777 -15.76357,24.61219 -8.31862,14.31788 -18.18967,39.51896 -20.10992,55.9366 -1.44395,12.34564 -1.64394,35.90835 -0.0492,52.39786 0.17999,1.86104 0.38873,3.71641 0.63403,5.56457 2.16996,16.34879 12.28242,41.5678 19.29042,56.56855 1.86783,3.99812 3.82104,7.95877 5.83098,11.88565 7.54859,14.74795 23.33792,36.52199 36.72863,46.26286 9.92965,7.22312 32.89582,13.75597 48.70226,18.69294 0.1936,0.0605 0.38712,0.12103 0.58058,0.1817 15.77188,4.94629 38.69812,19.68231 47.98218,33.33051 7.36229,10.82315 17.19206,32.91234 24.64124,47.71182 26.02538,51.70533 51.04455,103.95639 76.92804,155.68966 7.41334,14.81703 21.66554,37.45067 31.68618,50.63666 7.4328,9.78069 26.62484,23.83574 42.41044,28.71832 12.92038,3.99632 28.86241,17.0926 35.61724,32.21984 21.32473,47.75612 44.67566,83.64982 58.79844,102.24242 5.95879,7.8448 16.40787,17.8564 23.53202,20.7534 0.4892,0.199 13.56788,4.1898 27.90391,0.066 z"
           id="path8"
           inkscape:path-effect="#path-effect8"
           inkscape:original-d="m 839.11111,1121.5529 c 17.10259,4.6948 31.31783,-0.5377 44.62839,-7.9345 12.7235,-4.6637 29.49832,-12.8313 33.92338,-25.3956 8.6306,-24.5053 -6.91835,-49.8657 -10.4101,-74.7971 -9.89323,-36.65142 -20.03513,-73.22941 -34.02119,-108.60107 10.32169,-15.46893 18.64054,-31.71379 20.39754,-50.50084 0.96753,-18.96091 -7.07493,-37.94532 -9.6559,-56.91549 -28.37507,-76.63856 -57.65374,-153.10694 -84.18979,-230.32299 -4.32744,-14.40483 -4.73083,-28.63846 1.42793,-42.58578 6.49349,-23.71511 22.82809,-44.17646 23.04341,-69.60011 1.41651,-16.20902 -0.8125,-33.31931 -3.22557,-49.1787 -18.58278,-34.08446 -38.14105,-68.31222 -61.42263,-99.10098 -19.00632,-12.06882 -37.75088,-24.71274 -60.22535,-29.16166 -16.62401,-6.60209 -29.77916,-7.79723 -51.58984,-7.79723 -21.71223,0.30916 -49.62497,1.7071 -63.92594,8.32627 -28.46826,7.8646 -56.01572,18.02187 -81.83053,32.4933 -23.20192,10.89575 -43.23077,27.88927 -63.49229,43.16067 -18.16079,23.66713 -35.20017,48.02069 -47.11991,75.50814 -5.95725,16.1066 -7.41882,34.45703 -8.17579,51.65532 1.10682,21.87778 0.47869,44.09763 10.46277,64.22518 7.39491,23.24346 19.42547,45.07202 31.19085,66.12177 13.1503,11.48305 24.55124,25.8993 42.76294,28.89576 18.41693,8.00311 39.65029,11.13116 56.62766,21.27179 14.317,11.46174 24.59641,25.88749 31.36347,42.89165 35.56487,69.28237 68.72241,139.88572 104.03078,209.21843 11.54403,12.85959 19.91914,29.54996 33.40639,40.0605 15.73613,9.75434 32.7327,15.69014 51.24021,17.04852 31.77972,81.78335 73.73681,136.66965 81.98267,143.44915 19.5952,-0.3991 1.46485,3.6155 12.79644,7.5656 z"
           inkscape:label="probe outline1"
           sodipodi:nodetypes="ccscccccccccccccccccccccccccc"
           transform="translate(2,10)" />
        <path
           style="opacity:1;fill:none;fill-opacity:1;stroke:#3c5d72;stroke-width:30;stroke-dasharray:none;stroke-opacity:1"
           d="M 391.85966,545.33337 790.82944,359.63066"
           id="path9"
           inkscape:label="probe outline2" />
        <path
           style="opacity:1;fill:none;fill-opacity:1;stroke:#3c5d72;stroke-width:30;stroke-dasharray:none;stroke-opacity:1"
           d="m 717.52717,974.41499 22.19944,1.60966 a 159.1376,159.1376 168.6916 0 0 83.17102,-16.63188 144.92371,144.92371 136.20695 0 0 55.18561,-52.90825 l 11.52517,-17.9874"
           id="path10"
           sodipodi:nodetypes="cccc"
           inkscape:path-effect="#path-effect10"
           inkscape:original-d="m 717.52717,974.41499 66.08423,4.79171 70.73414,-35.67462 35.26287,-55.03496"
           inkscape:label="probe outline3" />
      </g>
    </g>
  </g>
</svg>
